<mxfile host="app.diagrams.net" agent="Mozilla/5.0 (Macintosh; Intel Mac OS X 10_15_7) AppleWebKit/537.36 (KHTML, like Gecko) Chrome/141.0.0.0 Safari/537.36" version="28.2.8">
  <diagram name="Page-1" id="tbxe56rkmKzxbGD7_dYk">
    <mxGraphModel dx="1769" dy="1046" grid="1" gridSize="10" guides="1" tooltips="1" connect="1" arrows="1" fold="1" page="1" pageScale="1" pageWidth="827" pageHeight="1169" math="0" shadow="0">
      <root>
        <mxCell id="0" />
        <mxCell id="1" parent="0" />
        <mxCell id="xZ_kHjIbER7TZwac74ac-4" value="" style="group" parent="1" vertex="1" connectable="0">
          <mxGeometry x="424" y="560" width="269.86000000000007" height="170" as="geometry" />
        </mxCell>
        <mxCell id="xZ_kHjIbER7TZwac74ac-1" value="" style="image;aspect=fixed;perimeter=ellipsePerimeter;html=1;align=center;shadow=0;dashed=0;spacingTop=3;image=img/lib/active_directory/internet_cloud.svg;" parent="xZ_kHjIbER7TZwac74ac-4" vertex="1">
          <mxGeometry width="269.86" height="170" as="geometry" />
        </mxCell>
        <mxCell id="xZ_kHjIbER7TZwac74ac-2" value="" style="image;aspect=fixed;html=1;points=[];align=center;fontSize=12;image=img/lib/azure2/databases/Oracle_Database.svg;" parent="xZ_kHjIbER7TZwac74ac-4" vertex="1">
          <mxGeometry x="100.93" y="70" width="68" height="68" as="geometry" />
        </mxCell>
        <mxCell id="xZ_kHjIbER7TZwac74ac-3" value="" style="shape=image;verticalLabelPosition=bottom;verticalAlign=top;imageAspect=0;aspect=fixed;image=data:image/svg+xml,PHN2ZyB4bWxucz0iaHR0cDovL3d3dy53My5vcmcvMjAwMC9zdmciIHZpZXdCb3g9IjAgMCA2MzguMDM0NjY3OTY4NzUgNzkuOTc2NTAxNDY0ODQzNzUiIHZlcnNpb249IjEuMCIgd2lkdGg9IjkyMy4wNzY4NzY3MzU3MDEiIGhlaWdodD0iNTMzLjMzNDAwOTk2NTIzMTQiPjxwYXRoIGZpbGw9IiNmODAwMDAiIGQ9Ik0yNjUuNTkxMyA1Mi4wMzJoNDAuNjUyTDI4NC43NDggMTcuNDQ5NWwtMzkuNDUxMyA2Mi41MjdoLTE3Ljk1NWw0Ny45ODYtNzUuMTA4M0MyNzcuNDE0IDEuODMzNCAyODAuODkxMSAwIDI4NC43NDggMGMzLjcyOTggMCA3LjIwNyAxLjc3MDIgOS4yMzAyIDQuNzQxN2w0OC4xNzU1IDc1LjIzNDdoLTE3Ljk1NWwtOC40NzE5LTEzLjk3MjJoLTQxLjE1OHptMTg2LjUwNjMgMTMuOTcyMlYuNzU4N0g0MzYuODYxdjcxLjYzMWMwIDEuOTYuNzU4OCAzLjg1NjYgMi4yMTI4IDUuMzEwNyAxLjQ1NCAxLjQ1NDEgMy40MTQgMi4yNzYgNS41NjM1IDIuMjc2aDY5LjQ4MTZsOC45Nzc1LTEzLjk3MjJ6bS0yNTIuMDY4LTExLjY5NjFjMTQuNzk0MyAwIDI2LjgwNjYtMTEuOTQ5IDI2LjgwNjYtMjYuNzQzMSAwLTE0Ljc5NC0xMi4wMTIzLTI2LjgwNjMtMjYuODA2NS0yNi44MDYzSDEzMy4zNzR2NzkuMjE3N2gxNS4yMzA2VjE0LjczMDhoNTAuNDEzNWM3LjA4MTEgMCAxMi43NzEgNS43NTMyIDEyLjc3MSAxMi44MzQyIDAgNy4wODA5LTUuNjg5OSAxMi44MzQyLTEyLjc3MSAxMi44MzQybC00Mi45NTMyLS4wNjMzIDQ1LjQ4MiAzOS42NDA0aDIyLjEyODFMMTkzLjA3NTQgNTQuMzA4ek0zOS42MTU3IDc5Ljk3NjRDMTcuNzQ2NSA3OS45NzY0IDAgNjIuMjc0IDAgNDAuMzk5MiAwIDE4LjUyNDIgMTcuNzQ2Ny43NTg3IDM5LjYxNTUuNzU4N2g0Ni4wNDQ2YzIxLjg3NSAwIDM5LjYwOSAxNy43NjU1IDM5LjYwOSAzOS42NDA1IDAgMjEuODc0OS0xNy43MzQgMzkuNTc3Mi0zOS42MDkgMzkuNTc3MnpNODQuNjM2IDY2LjAwNDJjMTQuMTY4NCAwIDI1LjY0MzMtMTEuNDQzMyAyNS42NDMzLTI1LjYwNSAwLTE0LjE2MTktMTEuNDc0OS0yNS42Njg0LTI1LjY0MzMtMjUuNjY4NEg0MC42MzMyYy0xNC4xNjE4IDAtMjUuNjQzMyAxMS41MDY1LTI1LjY0MzMgMjUuNjY4NCAwIDE0LjE2MTcgMTEuNDgxNSAyNS42MDUgMjUuNjQzMyAyNS42MDV6bTI4OS4zMTg2IDEzLjk3MjJjLTIxLjg3NSAwLTM5LjY0MDMtMTcuNzAyMy0zOS42NDAzLTM5LjU3NzIgMC0yMS44NzUgMTcuNzY1My0zOS42NDA1IDM5LjY0MDMtMzkuNjQwNWg1NC42ODc0bC04LjkxNDMgMTMuOTcyMWgtNDQuNzYxNWMtMTQuMTYxOSAwLTI1LjY2OCAxMS41MDY1LTI1LjY2OCAyNS42Njg0IDAgMTQuMTYxNyAxMS41MDYxIDI1LjYwNSAyNS42NjggMjUuNjA1aDU0Ljk0MDFsLTguOTc3NCAxMy45NzIyem0xODYuMzE2Ny0xMy45NzIyYy0xMS42OTYzIDAtMjEuNjIyMi03LjgzOTYtMjQuNjU3LTE4LjY1MDZoNjUuMTE5M2w4Ljk3NzUtMTMuOTcyMmgtNzQuMDk2OGMzLjAzNDgtMTAuNzQ3OCAxMi45NjA3LTE4LjY1MDYgMjQuNjU3LTE4LjY1MDZoNDQuNjk4M0w2MTQuMDEwMi43NTg3aC01NC43NTA2Yy0yMS44NzUgMC0zOS42NDAzIDE3Ljc2NTUtMzkuNjQwMyAzOS42NDA1IDAgMjEuODc0OSAxNy43NjUzIDM5LjU3NzIgMzkuNjQwMyAzOS41NzcyaDQ2Ljk3NDNsOC45Nzc0LTEzLjk3MjJoLTU0Ljk0bTYxLjg5NDgtNTYuODM2OWE2LjkzNDEgNi45MzQxIDAgMDE2Ljk1NDMtNi45NTQ1YzMuOTIgMCA3LjAxNzUgMy4wOTc5IDcuMDE3NSA2Ljk1NDUgMCAzLjkxOTctMy4wOTc1IDcuMDE3Ni03LjAxNzUgNy4wMTc2LTMuODU2OCAwLTYuOTU0My0zLjA5NzktNi45NTQzLTcuMDE3NnptNi45NTQzIDguOTc3NWM0LjkzMTEgMCA4LjkxNDMtMy45ODMgOC45MTQzLTguOTE0MyAwLTQuOTMxNC0zLjk4MzItOC45MTQ0LTguOTE0My04LjkxNDQtNC44Njg0IDAtOC44NTEgMy45ODMtOC44NTEgOC45MTQ0IDAgNC45MzEzIDMuOTgyNiA4LjkxNDMgOC44NTEgOC45MTQzem0tLjgyMi0xNC4yMjVjMS4zOTA4IDAgMS45Ni4wNjMyIDIuNTkyNC4zMTYgMS43Ny41NjkxIDEuOTU5NSAyLjE0OTYgMS45NTk1IDIuNzgxOSAwIC4xMjY0IDAgLjQ0MjUtLjEyNjQuODIxOC0uMDYzLjM3OTQtLjMxNTkgMS4xMzgtMS4yMDEgMS43MDctLjEyNjUuMDYzMy0uMTg5Ny4xMjY1LS40NDI1LjI1M2wyLjI3NiA0LjEwOTRoLTIuMjEyOGwtMi4wMjMyLTMuNzkzM2gtMS4zOTA3djMuNzkzM2gtMS45NlYzLjkxOTh6bS42OTU2IDQuNTUyYy42MzItLjA2MzIgMS4yNjQ0LS4wNjMyIDEuNjQzNi0uNjMyMy4xODk1LS4yNTI4LjI1MzItLjUwNTcuMjUzMi0uODg1IDAtLjUwNTgtLjMxNjQtLjk0ODQtLjc1ODgtMS4yMDEzLS40NDI4LS4xODk2LS44ODUyLS4xODk2LTEuODMzNi0uMTg5NmgtLjU2ODd2Mi45MDgyaDEuMjY0MyIvPjwvc3ZnPg==;" parent="xZ_kHjIbER7TZwac74ac-4" vertex="1">
          <mxGeometry x="82.98000000000002" y="20" width="103.9" height="60" as="geometry" />
        </mxCell>
        <mxCell id="xZ_kHjIbER7TZwac74ac-9" value="" style="group" parent="1" vertex="1" connectable="0">
          <mxGeometry x="70" y="560" width="269.8399999999999" height="170" as="geometry" />
        </mxCell>
        <mxCell id="xZ_kHjIbER7TZwac74ac-5" value="" style="image;aspect=fixed;perimeter=ellipsePerimeter;html=1;align=center;shadow=0;dashed=0;spacingTop=3;image=img/lib/active_directory/internet_cloud.svg;" parent="xZ_kHjIbER7TZwac74ac-9" vertex="1">
          <mxGeometry width="269.84" height="170" as="geometry" />
        </mxCell>
        <mxCell id="xZ_kHjIbER7TZwac74ac-6" value="" style="image;aspect=fixed;html=1;points=[];align=center;fontSize=12;image=img/lib/azure2/databases/Azure_Database_PostgreSQL_Server_Group.svg;" parent="xZ_kHjIbER7TZwac74ac-9" vertex="1">
          <mxGeometry x="117.92000000000007" y="60" width="60" height="68" as="geometry" />
        </mxCell>
        <mxCell id="xZ_kHjIbER7TZwac74ac-7" value="" style="shape=image;verticalLabelPosition=bottom;verticalAlign=top;imageAspect=0;aspect=fixed;image=data:image/svg+xml,PHN2ZyB4bWxuczp4bGluaz0iaHR0cDovL3d3dy53My5vcmcvMTk5OS94bGluayIgeG1sbnM9Imh0dHA6Ly93d3cudzMub3JnLzIwMDAvc3ZnIiB4bWw6c3BhY2U9InByZXNlcnZlIiBzdHlsZT0iZW5hYmxlLWJhY2tncm91bmQ6bmV3IDAgMCAxNzQuNiA0MzsiIHZpZXdCb3g9IjAgMCAxNzQuNjAwMDA2MTAzNTE1NjIgNDMuMDk5OTk4NDc0MTIxMDk0IiB5PSIwcHgiIHg9IjBweCIgaWQ9IkxheWVyXzEiIHZlcnNpb249IjEuMSIgd2lkdGg9IjE3NC42MDAwMDYxMDM1MTU2MiIgaGVpZ2h0PSI0My4wOTk5OTg0NzQxMjEwOTQiPiYjeGE7IDxzdHlsZSB0eXBlPSJ0ZXh0L2NzcyI+JiN4YTsgIC5zdDB7ZmlsbDojMzAzMDMwO30mI3hhOwkuc3Qxe2ZpbGw6dXJsKCNTVkdJRF8xXyk7fSYjeGE7CS5zdDJ7ZmlsbDp1cmwoI1NWR0lEXzJfKTt9JiN4YTsJLnN0M3tmaWxsOnVybCgjU1ZHSURfM18pO30mI3hhOwkuc3Q0e2ZpbGw6dXJsKCNTVkdJRF80Xyk7fSYjeGE7CS5zdDV7ZmlsbDp1cmwoI1NWR0lEXzVfKTt9JiN4YTsJLnN0NntmaWxsOnVybCgjU1ZHSURfNl8pO30mI3hhOwkuc3Q3e2ZpbGw6dXJsKCNTVkdJRF83Xyk7fSYjeGE7CS5zdDh7ZmlsbDp1cmwoI1NWR0lEXzhfKTt9JiN4YTsJLnN0OXtmaWxsOnVybCgjU1ZHSURfOV8pO30mI3hhOyA8L3N0eWxlPiYjeGE7IDxtZXRhZGF0YT4mI3hhOyAgJiN4YTsgICAmI3hhOyAgICYjeGE7ICAgJiN4YTsgICAmI3hhOyAgJiN4YTsgPC9tZXRhZGF0YT4mI3hhOyA8Zz4mI3hhOyAgPHBhdGggZD0iTTc2LjIsMTEuOWMxLjksMCwzLjUsMC4yLDQuNywwLjdjMS4zLDAuNSwyLjMsMS4xLDMuMSwyYzAuOCwwLjksMS4zLDEuOSwxLjYsMy4xYzAuMywxLjIsMC41LDIuNSwwLjUsNHYxNC44JiMxMDsmIzk7JiM5O2MtMC45LDAuMi0yLjIsMC40LTQsMC43Yy0xLjgsMC4zLTMuOCwwLjQtNiwwLjRjLTEuNCwwLTIuOC0wLjEtNC0wLjRjLTEuMi0wLjMtMi4yLTAuNy0zLjEtMS40Yy0wLjktMC42LTEuNS0xLjQtMi0yLjQmIzEwOyYjOTsmIzk7Yy0wLjUtMS0wLjctMi4yLTAuNy0zLjdjMC0xLjQsMC4zLTIuNiwwLjgtMy42YzAuNi0xLDEuMy0xLjgsMi4yLTIuNGMwLjktMC42LDItMS4xLDMuMy0xLjNjMS4yLTAuMywyLjUtMC40LDMuOS0wLjQmIzEwOyYjOTsmIzk7YzAuNiwwLDEuMywwLDIsMC4xYzAuNywwLjEsMS40LDAuMiwyLjIsMC40di0wLjljMC0wLjYtMC4xLTEuMy0wLjItMS45Yy0wLjItMC42LTAuNC0xLjEtMC44LTEuNmMtMC40LTAuNS0wLjktMC44LTEuNi0xLjEmIzEwOyYjOTsmIzk7Yy0wLjYtMC4zLTEuNC0wLjQtMi40LTAuNGMtMS4zLDAtMi41LDAuMS0zLjYsMC4zYy0xLjEsMC4yLTIsMC40LTIuNywwLjZsLTAuNy00LjZjMC43LTAuMywxLjgtMC41LDMuMS0wLjgmIzEwOyYjOTsmIzk7QzczLjIsMTIuMSw3NC42LDExLjksNzYuMiwxMS45TDc2LjIsMTEuOXogTTc2LjcsMzMuMWMxLjgsMCwzLjEtMC4xLDQtMC4zdi02LjNjLTAuMy0wLjEtMC44LTAuMi0xLjQtMC4zYy0wLjYtMC4xLTEuMy0wLjEtMi0wLjEmIzEwOyYjOTsmIzk7Yy0wLjYsMC0xLjMsMC0xLjksMC4xYy0wLjYsMC4xLTEuMiwwLjMtMS43LDAuNWMtMC41LDAuMy0wLjksMC42LTEuMywxLjFjLTAuMywwLjUtMC41LDEtMC41LDEuN2MwLDEuNCwwLjQsMi4zLDEuMywyLjgmIzEwOyYjOTsmIzk7Qzc0LjEsMzIuOCw3NS4yLDMzLjEsNzYuNywzMy4xeiBNOTguNSw1LjRjMCwxLjEtMC4zLDEuOS0xLDIuNlM5Niw4LjgsOTUsOC44Yy0xLDAtMS44LTAuMy0yLjUtMC45Yy0wLjctMC42LTEtMS40LTEtMi42JiMxMDsmIzk7JiM5O3MwLjMtMS45LDEtMi42YzAuNy0wLjYsMS41LTAuOSwyLjUtMC45YzAuOSwwLDEuOCwwLjMsMi40LDAuOUM5OC4xLDMuNCw5OC41LDQuMyw5OC41LDUuNHogTTk3LjksMzcuMWgtNS43VjEyLjZoNS43VjM3LjF6JiMxMDsmIzk7JiM5OyBNMTExLjQsMzcuMWMtMS42LTMuMi0zLjItNi45LTQuOC0xMS4xYy0xLjYtNC4yLTMuMS04LjctNC41LTEzLjRoNi4xYzAuMywxLjQsMC44LDIuOSwxLjIsNC40YzAuNSwxLjYsMC45LDMuMiwxLjQsNC43JiMxMDsmIzk7JiM5O2MwLjUsMS42LDEuMSwzLjEsMS42LDQuNmMwLjYsMS41LDEuMSwyLjgsMS41LDRjMC41LTEuMiwxLTIuNSwxLjUtNGMwLjUtMS41LDEuMS0zLDEuNi00LjZjMC41LTEuNiwxLTMuMiwxLjUtNC43JiMxMDsmIzk7JiM5O2MwLjUtMS42LDAuOS0zLDEuMi00LjRoNS44Yy0xLjQsNC44LTIuOSw5LjMtNC41LDEzLjRjLTEuNiw0LjItMy4zLDcuOS00LjgsMTEuMUMxMTYuMywzNy4xLDExMS40LDM3LjEsMTExLjQsMzcuMXogTTEyNi45LDI0LjkmIzEwOyYjOTsmIzk7YzAtMi4xLDAuMy00LDEtNS43YzAuNi0xLjYsMS41LTMsMi42LTQuMWMxLjEtMS4xLDIuMy0xLjksMy43LTIuNGMxLjQtMC42LDIuOC0wLjgsNC4yLTAuOGMzLjQsMCw2LDEuMSw3LjksMy4xJiMxMDsmIzk7JiM5O2MxLjksMi4xLDIuOSw1LjIsMi45LDkuNGMwLDAuMywwLDAuNiwwLDEuMWMwLDAuNCwwLDAuNy0wLjEsMS4xaC0xNi4yYzAuMiwyLDAuOSwzLjUsMi4xLDQuNmMxLjIsMS4xLDMsMS42LDUuMywxLjYmIzEwOyYjOTsmIzk7YzEuNCwwLDIuNi0wLjEsMy44LTAuNGMxLjEtMC4zLDIuMS0wLjUsMi43LTAuOGwwLjgsNC42Yy0wLjMsMC4yLTAuNywwLjMtMS4zLDAuNXMtMS4xLDAuMy0xLjksMC41Yy0wLjcsMC4xLTEuNCwwLjMtMi4zLDAuNCYjMTA7JiM5OyYjOTtjLTAuOCwwLjEtMS42LDAuMS0yLjUsMC4xYy0yLjEsMC00LTAuMy01LjYtMWMtMS42LTAuNi0yLjktMS41LTMuOS0yLjdjLTEtMS4xLTEuOC0yLjUtMi4zLTRDMTI3LjEsMjguNSwxMjYuOSwyNi44LDEyNi45LDI0Ljl6JiMxMDsmIzk7JiM5OyBNMTQzLjMsMjIuNGMwLTAuOC0wLjEtMS41LTAuMy0yLjJjLTAuMi0wLjctMC41LTEuMy0xLTEuOGMtMC40LTAuNS0wLjktMC45LTEuNi0xLjJjLTAuNi0wLjMtMS4zLTAuNC0yLjItMC40cy0xLjYsMC4yLTIuMywwLjUmIzEwOyYjOTsmIzk7Yy0wLjYsMC4zLTEuMiwwLjgtMS42LDEuM2MtMC41LDAuNS0wLjgsMS4xLTEuMSwxLjhjLTAuMywwLjctMC40LDEuNC0wLjUsMi4xQzEzMi44LDIyLjQsMTQzLjMsMjIuNCwxNDMuMywyMi40eiBNMTU0LjEsMTMuMyYjMTA7JiM5OyYjOTtjMS4xLTAuMywyLjUtMC42LDQuMy0wLjljMS44LTAuMywzLjctMC40LDUuOC0wLjRjMiwwLDMuNywwLjMsNSwwLjhjMS40LDAuNiwyLjQsMS4zLDMuMiwyLjNzMS40LDIuMiwxLjcsMy42JiMxMDsmIzk7JiM5O2MwLjMsMS40LDAuNSwyLjksMC41LDQuNnYxMy44aC01LjdWMjQuMmMwLTEuMy0wLjEtMi40LTAuMy0zLjRjLTAuMi0wLjktMC41LTEuNy0wLjktMi4yYy0wLjQtMC42LTAuOS0xLTEuNi0xLjMmIzEwOyYjOTsmIzk7Yy0wLjYtMC4zLTEuNS0wLjQtMi40LTAuNGMtMC43LDAtMS40LDAtMi4yLDAuMWMtMC44LDAuMS0xLjQsMC4yLTEuNywwLjJ2MTkuOGgtNS43TDE1NC4xLDEzLjNMMTU0LjEsMTMuM3oiIGNsYXNzPSJzdDAiPiYjeGE7ICA8L3BhdGg+JiN4YTsgIDxnPiYjeGE7ICAgPGxpbmVhckdyYWRpZW50IGdyYWRpZW50VHJhbnNmb3JtPSJtYXRyaXgoMC4yMzUzIDAgMCAtMC4yMzUzIC04NS40NjEgLTExOS42NjE5KSIgeTI9Ii01NDAuNTM1NSIgeDI9IjUyOC4wMDA3IiB5MT0iLTY3Ni4wMDQxIiB4MT0iNDI3Ljc5MDYiIGdyYWRpZW50VW5pdHM9InVzZXJTcGFjZU9uVXNlIiBpZD0iU1ZHSURfMV8iPiYjeGE7ICAgIDxzdG9wIHN0eWxlPSJzdG9wLWNvbG9yOiNGRjc3MDAiIG9mZnNldD0iMCI+JiN4YTsgICAgPC9zdG9wPiYjeGE7ICAgIDxzdG9wIHN0eWxlPSJzdG9wLWNvbG9yOiNGRjM1NTQiIG9mZnNldD0iMC43NDIiPiYjeGE7ICAgIDwvc3RvcD4mI3hhOyAgIDwvbGluZWFyR3JhZGllbnQ+JiN4YTsgICA8cGF0aCBkPSJNNDAuNywyOS4xYzAuOSwwLDEuOCwwLjIsMi42LDAuNWMxLjMtMS41LDItMy4yLDItNC45YzAtMi44LTEuOS01LjUtNS4zLTcuNmMtMy43LTIuMi04LjctMy41LTEzLjktMy41JiMxMDsmIzk7JiM5OyYjOTtjLTUuMywwLTEwLjIsMS4yLTEzLjksMy41Yy0zLjUsMi4xLTUuMyw0LjgtNS4zLDcuNmMwLDEuNywwLjcsMy40LDIsNC45YzAuOS0wLjMsMS43LTAuNSwyLjYtMC41YzIuMSwwLDQsMC44LDUuNSwyLjMmIzEwOyYjOTsmIzk7JiM5O2MxLDEsMS43LDIuMywyLjEsMy42YzIuMiwwLjUsNC42LDAuOCw3LjEsMC44czQuOC0wLjMsNy4xLTAuOGMwLjMtMS40LDEtMi42LDIuMS0zLjZDMzYuNywzMCwzOC42LDI5LjEsNDAuNywyOS4xeiBNMjYuMSwyMi43JiMxMDsmIzk7JiM5OyYjOTtjLTIuNCwwLTQuMy0xLjktNC4zLTQuM2g4LjZDMzAuNCwyMC43LDI4LjUsMjIuNywyNi4xLDIyLjd6IiBjbGFzcz0ic3QxIj4mI3hhOyAgIDwvcGF0aD4mI3hhOyAgIDxsaW5lYXJHcmFkaWVudCBncmFkaWVudFRyYW5zZm9ybT0ibWF0cml4KDAuMjM1MyAwIDAgLTAuMjM1MyAtODUuNDYxIC0xMTkuNjYxOSkiIHkyPSItNDg5LjMwNjUiIHgyPSI0NTguNzQ3NCIgeTE9Ii02MjQuNzc1IiB4MT0iMzU4LjUzNzIiIGdyYWRpZW50VW5pdHM9InVzZXJTcGFjZU9uVXNlIiBpZD0iU1ZHSURfMl8iPiYjeGE7ICAgIDxzdG9wIHN0eWxlPSJzdG9wLWNvbG9yOiNGRjc3MDAiIG9mZnNldD0iMCI+JiN4YTsgICAgPC9zdG9wPiYjeGE7ICAgIDxzdG9wIHN0eWxlPSJzdG9wLWNvbG9yOiNGRjM1NTQiIG9mZnNldD0iMC43NDIiPiYjeGE7ICAgIDwvc3RvcD4mI3hhOyAgIDwvbGluZWFyR3JhZGllbnQ+JiN4YTsgICA8cGF0aCBkPSJNMTEuMSwxNWMwLjQtMC4zLDAuOS0wLjUsMS4zLTAuN2gwYy0xLjEtMC44LTIuNC0xLjItMy42LTEuMmMtMS45LDAtMy43LDAuOC00LjksMi40bC0wLjUsMC42bDMuNCwyLjYmIzEwOyYjOTsmIzk7JiM5O0M3LjgsMTcuNCw5LjMsMTYuMSwxMS4xLDE1eiIgY2xhc3M9InN0MiI+JiN4YTsgICA8L3BhdGg+JiN4YTsgICA8bGluZWFyR3JhZGllbnQgZ3JhZGllbnRUcmFuc2Zvcm09Im1hdHJpeCgwLjIzNTMgMCAwIC0wLjIzNTMgLTg1LjQ2MSAtMTE5LjY2MTkpIiB5Mj0iLTQ5OC4xODUzIiB4Mj0iNDcwLjc1MDEiIHkxPSItNjMzLjY1NTIiIHgxPSIzNzAuNTM5OSIgZ3JhZGllbnRVbml0cz0idXNlclNwYWNlT25Vc2UiIGlkPSJTVkdJRF8zXyI+JiN4YTsgICAgPHN0b3Agc3R5bGU9InN0b3AtY29sb3I6I0ZGNzcwMCIgb2Zmc2V0PSIwIj4mI3hhOyAgICA8L3N0b3A+JiN4YTsgICAgPHN0b3Agc3R5bGU9InN0b3AtY29sb3I6I0ZGMzU1NCIgb2Zmc2V0PSIwLjc0MiI+JiN4YTsgICAgPC9zdG9wPiYjeGE7ICAgPC9saW5lYXJHcmFkaWVudD4mI3hhOyAgIDxwYXRoIGQ9Ik02LjgsMzAuN2MtMS4xLTEuNS0xLjktMy4xLTIuMS00LjhjLTAuMS0wLjQtMC4xLTAuOC0wLjEtMS4yYzAtMiwwLjYtMy45LDEuOS01LjZINi4xJiMxMDsmIzk7JiM5OyYjOTtjLTMuNCwwLTYuMSwyLjctNi4xLDYuMXYwLjloNC41Yy0xLjIsMS0xLjksMi40LTIuMSwzLjljLTAuMiwxLjYsMC4yLDMuMiwxLjIsNC41TDQsMzQuOWMwLjQtMS4zLDEtMi41LDItMy41JiMxMDsmIzk7JiM5OyYjOTtDNi4yLDMxLjIsNi41LDMwLjksNi44LDMwLjd6IiBjbGFzcz0ic3QzIj4mI3hhOyAgIDwvcGF0aD4mI3hhOyAgIDxsaW5lYXJHcmFkaWVudCBncmFkaWVudFRyYW5zZm9ybT0ibWF0cml4KDAuMjM1MyAwIDAgLTAuMjM1MyAtODUuNDYxIC0xMTkuNjYxOSkiIHkyPSItNTYzLjI4ODIiIHgyPSI1NTguNzYiIHkxPSItNjk4Ljc1NjgiIHgxPSI0NTguNTQ5OCIgZ3JhZGllbnRVbml0cz0idXNlclNwYWNlT25Vc2UiIGlkPSJTVkdJRF80XyI+JiN4YTsgICAgPHN0b3Agc3R5bGU9InN0b3AtY29sb3I6I0ZGNzcwMCIgb2Zmc2V0PSIwIj4mI3hhOyAgICA8L3N0b3A+JiN4YTsgICAgPHN0b3Agc3R5bGU9InN0b3AtY29sb3I6I0ZGMzU1NCIgb2Zmc2V0PSIwLjc0MiI+JiN4YTsgICAgPC9zdG9wPiYjeGE7ICAgPC9saW5lYXJHcmFkaWVudD4mI3hhOyAgIDxwYXRoIGQ9Ik00NS40LDE4LjhsMy40LTIuNmwtMC41LTAuN2MtMS4yLTEuNi0zLTIuNC00LjktMi40Yy0xLjMsMC0yLjYsMC40LTMuNiwxLjJoMGMwLjQsMC4yLDAuOSwwLjUsMS4zLDAuNyYjMTA7JiM5OyYjOTsmIzk7QzQyLjksMTYuMSw0NC4zLDE3LjQsNDUuNCwxOC44eiIgY2xhc3M9InN0NCI+JiN4YTsgICA8L3BhdGg+JiN4YTsgICA8bGluZWFyR3JhZGllbnQgZ3JhZGllbnRUcmFuc2Zvcm09Im1hdHJpeCgwLjIzNTMgMCAwIC0wLjIzNTMgLTg1LjQ2MSAtMTE5LjY2MTkpIiB5Mj0iLTU4Ni40MDA2IiB4Mj0iNTkwLjAwNTIiIHkxPSItNzIxLjg3MDUiIHgxPSI0ODkuNzk1IiBncmFkaWVudFVuaXRzPSJ1c2VyU3BhY2VPblVzZSIgaWQ9IlNWR0lEXzVfIj4mI3hhOyAgICA8c3RvcCBzdHlsZT0ic3RvcC1jb2xvcjojRkY3NzAwIiBvZmZzZXQ9IjAiPiYjeGE7ICAgIDwvc3RvcD4mI3hhOyAgICA8c3RvcCBzdHlsZT0ic3RvcC1jb2xvcjojRkYzNTU0IiBvZmZzZXQ9IjAuNzQyIj4mI3hhOyAgICA8L3N0b3A+JiN4YTsgICA8L2xpbmVhckdyYWRpZW50PiYjeGE7ICAgPHBhdGggZD0iTTUyLjEsMjUuMmMwLTMuNC0yLjctNi4xLTYuMS02LjFoLTAuNGMxLjIsMS43LDEuOSwzLjYsMS45LDUuNmMwLDAuNCwwLDAuOC0wLjEsMS4yJiMxMDsmIzk7JiM5OyYjOTtjLTAuMiwxLjctMC45LDMuMy0yLjEsNC44YzAuMywwLjIsMC42LDAuNSwwLjksMC43YzEsMSwxLjcsMi4yLDIsMy41bDAuNC0wLjVjMS0xLjMsMS40LTIuOSwxLjItNC41Yy0wLjItMS41LTEtMi45LTIuMS0zLjloNC41JiMxMDsmIzk7JiM5OyYjOTtMNTIuMSwyNS4yTDUyLjEsMjUuMnoiIGNsYXNzPSJzdDUiPiYjeGE7ICAgPC9wYXRoPiYjeGE7ICAgPGc+JiN4YTsgICAgPGxpbmVhckdyYWRpZW50IGdyYWRpZW50VHJhbnNmb3JtPSJtYXRyaXgoMC4yMzUzIDAgMCAtMC4yMzUzIC04NS40NjEgLTExOS42NjE5KSIgeTI9Ii00OTcuNjI3NSIgeDI9IjQ2OS45OTY3IiB5MT0iLTYzMy4wOTc0IiB4MT0iMzY5Ljc4NjUiIGdyYWRpZW50VW5pdHM9InVzZXJTcGFjZU9uVXNlIiBpZD0iU1ZHSURfNl8iPiYjeGE7ICAgICA8c3RvcCBzdHlsZT0ic3RvcC1jb2xvcjojRkY3NzAwIiBvZmZzZXQ9IjAiPiYjeGE7ICAgICA8L3N0b3A+JiN4YTsgICAgIDxzdG9wIHN0eWxlPSJzdG9wLWNvbG9yOiNGRjM1NTQiIG9mZnNldD0iMC43NDIiPiYjeGE7ICAgICA8L3N0b3A+JiN4YTsgICAgPC9saW5lYXJHcmFkaWVudD4mI3hhOyAgICA8cGF0aCBkPSJNMTguNywxMi4yYzMuNCwwLDYuMS0yLjcsNi4xLTYuMWMwLTMuNC0yLjctNi4xLTYuMS02LjFzLTYuMSwyLjctNi4xLDYuMVMxNS40LDEyLjIsMTguNywxMi4yeiBNMTguNywyLjgmIzEwOyYjOTsmIzk7JiM5OyYjOTtDMTguOCwyLjgsMTguOCwyLjgsMTguNywyLjhjLTAuNCwwLjQtMC43LDEtMC43LDEuN2MwLDEuMywxLjEsMi40LDIuNCwyLjRjMC42LDAsMS4yLTAuMywxLjctMC43djBjMCwxLjktMS41LDMuNC0zLjQsMy40JiMxMDsmIzk7JiM5OyYjOTsmIzk7Yy0xLjksMC0zLjQtMS41LTMuNC0zLjRDMTUuNCw0LjIsMTYuOSwyLjgsMTguNywyLjh6IiBjbGFzcz0ic3Q2Ij4mI3hhOyAgICA8L3BhdGg+JiN4YTsgICA8L2c+JiN4YTsgICA8Zz4mI3hhOyAgICA8bGluZWFyR3JhZGllbnQgZ3JhZGllbnRUcmFuc2Zvcm09Im1hdHJpeCgwLjIzNTMgMCAwIC0wLjIzNTMgLTg1LjQ2MSAtMTE5LjY2MTkpIiB5Mj0iLTUyNy40Mjg5IiB4Mj0iNTEwLjI4NDMiIHkxPSItNjYyLjg5ODciIHgxPSI0MTAuMDc0IiBncmFkaWVudFVuaXRzPSJ1c2VyU3BhY2VPblVzZSIgaWQ9IlNWR0lEXzdfIj4mI3hhOyAgICAgPHN0b3Agc3R5bGU9InN0b3AtY29sb3I6I0ZGNzcwMCIgb2Zmc2V0PSIwIj4mI3hhOyAgICAgPC9zdG9wPiYjeGE7ICAgICA8c3RvcCBzdHlsZT0ic3RvcC1jb2xvcjojRkYzNTU0IiBvZmZzZXQ9IjAuNzQyIj4mI3hhOyAgICAgPC9zdG9wPiYjeGE7ICAgIDwvbGluZWFyR3JhZGllbnQ+JiN4YTsgICAgPHBhdGggZD0iTTMzLjQsMTIuMmMzLjQsMCw2LjEtMi43LDYuMS02LjFTMzYuNywwLDMzLjQsMGMtMy40LDAtNi4xLDIuNy02LjEsNi4xUzMwLDEyLjIsMzMuNCwxMi4yeiBNMzMuNCwyLjgmIzEwOyYjOTsmIzk7JiM5OyYjOTtjLTAuNCwwLjQtMC43LDEtMC43LDEuN2MwLDEuMywxLjEsMi40LDIuNCwyLjRjMC42LDAsMS4yLTAuMywxLjctMC43djBjMCwxLjktMS41LDMuNC0zLjQsMy40QzMxLjUsOS41LDMwLDgsMzAsNi4xJiMxMDsmIzk7JiM5OyYjOTsmIzk7QzMwLDQuMiwzMS41LDIuOCwzMy40LDIuOHoiIGNsYXNzPSJzdDciPiYjeGE7ICAgIDwvcGF0aD4mI3hhOyAgIDwvZz4mI3hhOyAgIDxnPiYjeGE7ICAgIDxsaW5lYXJHcmFkaWVudCBncmFkaWVudFRyYW5zZm9ybT0ibWF0cml4KDAuMjM1MyAwIDAgLTAuMjM1MyAtODUuNDYxIC0xMTkuNjYxOSkiIHkyPSItNTI4LjgwMTEiIHgyPSI1MTIuMTM4NiIgeTE9Ii02NjQuMjcxIiB4MT0iNDExLjkyODQiIGdyYWRpZW50VW5pdHM9InVzZXJTcGFjZU9uVXNlIiBpZD0iU1ZHSURfOF8iPiYjeGE7ICAgICA8c3RvcCBzdHlsZT0ic3RvcC1jb2xvcjojRkY3NzAwIiBvZmZzZXQ9IjAiPiYjeGE7ICAgICA8L3N0b3A+JiN4YTsgICAgIDxzdG9wIHN0eWxlPSJzdG9wLWNvbG9yOiNGRjM1NTQiIG9mZnNldD0iMC43NDIiPiYjeGE7ICAgICA8L3N0b3A+JiN4YTsgICAgPC9saW5lYXJHcmFkaWVudD4mI3hhOyAgICA8cGF0aCBkPSJNMTEuNCwzMC44Yy0zLjQsMC02LjEsMi43LTYuMSw2LjFjMCwzLjQsMi43LDYuMSw2LjEsNi4xYzAuNywwLDEuNC0wLjEsMi0wLjRsLTAuMi0wLjImIzEwOyYjOTsmIzk7JiM5OyYjOTtjLTEuOC0xLjgtMi40LTQtMS4zLTUuMXMzLjMtMC40LDUuMSwxLjNsMC4yLDAuMmMwLjItMC42LDAuNC0xLjMsMC40LTJDMTcuNSwzMy42LDE0LjgsMzAuOCwxMS40LDMwLjh6IiBjbGFzcz0ic3Q4Ij4mI3hhOyAgICA8L3BhdGg+JiN4YTsgICA8L2c+JiN4YTsgICA8Zz4mI3hhOyAgICA8bGluZWFyR3JhZGllbnQgZ3JhZGllbnRUcmFuc2Zvcm09Im1hdHJpeCgwLjIzNTMgMCAwIC0wLjIzNTMgLTg1LjQ2MSAtMTE5LjY2MTkpIiB5Mj0iLTU4OC41ODM2IiB4Mj0iNTkyLjk1NTUiIHkxPSItNzI0LjA1MzQiIHgxPSI0OTIuNzQ1MyIgZ3JhZGllbnRVbml0cz0idXNlclNwYWNlT25Vc2UiIGlkPSJTVkdJRF85XyI+JiN4YTsgICAgIDxzdG9wIHN0eWxlPSJzdG9wLWNvbG9yOiNGRjc3MDAiIG9mZnNldD0iMCI+JiN4YTsgICAgIDwvc3RvcD4mI3hhOyAgICAgPHN0b3Agc3R5bGU9InN0b3AtY29sb3I6I0ZGMzU1NCIgb2Zmc2V0PSIwLjc0MiI+JiN4YTsgICAgIDwvc3RvcD4mI3hhOyAgICA8L2xpbmVhckdyYWRpZW50PiYjeGE7ICAgIDxwYXRoIGQ9Ik00MC43LDMwLjhjLTMuNCwwLTYuMSwyLjctNi4xLDYuMWMwLDAuNywwLjEsMS40LDAuNCwybDAuMi0wLjJjMS44LTEuOCw0LTIuNCw1LjEtMS4zczAuNCwzLjMtMS4zLDUuMSYjMTA7JiM5OyYjOTsmIzk7JiM5O2wtMC4yLDAuMmMwLjYsMC4yLDEuMywwLjQsMiwwLjRjMy40LDAsNi4xLTIuNyw2LjEtNi4xQzQ2LjgsMzMuNiw0NCwzMC44LDQwLjcsMzAuOHoiIGNsYXNzPSJzdDkiPiYjeGE7ICAgIDwvcGF0aD4mI3hhOyAgIDwvZz4mI3hhOyAgPC9nPiYjeGE7IDwvZz4mI3hhOzwvc3ZnPg==;" parent="xZ_kHjIbER7TZwac74ac-9" vertex="1">
          <mxGeometry x="112.96000000000004" y="30" width="81.4" height="20" as="geometry" />
        </mxCell>
        <mxCell id="xZ_kHjIbER7TZwac74ac-8" value="Postgres" style="text;html=1;whiteSpace=wrap;strokeColor=none;fillColor=none;align=center;verticalAlign=middle;rounded=0;" parent="xZ_kHjIbER7TZwac74ac-9" vertex="1">
          <mxGeometry x="96.5200000000001" y="124" width="92.67" height="30" as="geometry" />
        </mxCell>
        <mxCell id="xZ_kHjIbER7TZwac74ac-35" value="" style="group" parent="1" vertex="1" connectable="0">
          <mxGeometry x="150" y="150" width="470" height="310" as="geometry" />
        </mxCell>
        <mxCell id="xZ_kHjIbER7TZwac74ac-30" value="" style="group" parent="xZ_kHjIbER7TZwac74ac-35" vertex="1" connectable="0">
          <mxGeometry width="470" height="310" as="geometry" />
        </mxCell>
        <mxCell id="xZ_kHjIbER7TZwac74ac-10" value="" style="rounded=0;whiteSpace=wrap;html=1;fillColor=none;" parent="xZ_kHjIbER7TZwac74ac-30" vertex="1">
          <mxGeometry width="470" height="310" as="geometry" />
        </mxCell>
        <mxCell id="xZ_kHjIbER7TZwac74ac-11" value="" style="image;sketch=0;aspect=fixed;html=1;points=[];align=center;fontSize=12;image=img/lib/mscae/Docker.svg;" parent="xZ_kHjIbER7TZwac74ac-30" vertex="1">
          <mxGeometry x="20" y="20" width="60.98" height="50" as="geometry" />
        </mxCell>
        <mxCell id="xZ_kHjIbER7TZwac74ac-34" value="" style="group" parent="xZ_kHjIbER7TZwac74ac-30" vertex="1" connectable="0">
          <mxGeometry x="250" y="90" width="190" height="200" as="geometry" />
        </mxCell>
        <mxCell id="xZ_kHjIbER7TZwac74ac-29" value="" style="rounded=0;whiteSpace=wrap;html=1;fillColor=none;container=0;" parent="xZ_kHjIbER7TZwac74ac-34" vertex="1">
          <mxGeometry width="190" height="200" as="geometry" />
        </mxCell>
        <mxCell id="xZ_kHjIbER7TZwac74ac-22" value="" style="strokeWidth=2;html=1;shape=mxgraph.flowchart.database;whiteSpace=wrap;container=0;" parent="xZ_kHjIbER7TZwac74ac-34" vertex="1">
          <mxGeometry x="48.37000000000006" y="90" width="93.78999999999996" height="78.5" as="geometry" />
        </mxCell>
        <mxCell id="xZ_kHjIbER7TZwac74ac-18" value="" style="shape=image;verticalLabelPosition=bottom;verticalAlign=top;imageAspect=0;aspect=fixed;image=data:image/svg+xml,PHN2ZyB4bWxuczp4bGluaz0iaHR0cDovL3d3dy53My5vcmcvMTk5OS94bGluayIgeG1sbnM9Imh0dHA6Ly93d3cudzMub3JnLzIwMDAvc3ZnIiB2aWV3Qm94PSItMC4wMDAzNjM4MjY3NTE3MDg5ODQ0IC0wLjAwMTk1ODQ1NjgyMTczOTY3MzYgNTA4LjE1MDU0MzIxMjg5MDYgNDEwLjgyMTk2MDQ0OTIxODc1IiBkYXRhLW5hbWU9IkxheWVyIDEiIGlkPSJMYXllcl8xIiB3aWR0aD0iNTA4LjE1MDU0MzIxMjg5MDYiIGhlaWdodD0iNDEwLjgyMTk2MDQ0OTIxODc1Ij48ZGVmcz48c3R5bGU+LmNscy0xe2ZpbGw6dXJsKCNsaW5lYXItZ3JhZGllbnQpO30uY2xzLTJ7ZmlsbDp1cmwoI2xpbmVhci1ncmFkaWVudC0yKTt9LmNscy0ze2ZpbGw6dXJsKCNyYWRpYWwtZ3JhZGllbnQpO30uY2xzLTR7ZmlsbDojMjMxZjFmO308L3N0eWxlPjxsaW5lYXJHcmFkaWVudCBncmFkaWVudFVuaXRzPSJ1c2VyU3BhY2VPblVzZSIgZ3JhZGllbnRUcmFuc2Zvcm09InRyYW5zbGF0ZSgxNDUxLjIxIDEyNTQuOSkgc2NhbGUoMC4xMikiIHkyPSItODU0My4xMiIgeDI9Ii0xMDE1NS41IiB5MT0iLTg0NDIuMTQiIHgxPSItMTAzMjYuNCIgaWQ9ImxpbmVhci1ncmFkaWVudCI+PHN0b3Agc3RvcC1jb2xvcj0iIzkwOWNhOSIgb2Zmc2V0PSIwIi8+PHN0b3Agc3RvcC1jb2xvcj0iI2VkZWRlZSIgb2Zmc2V0PSIxIi8+PC9saW5lYXJHcmFkaWVudD48bGluZWFyR3JhZGllbnQgZ3JhZGllbnRVbml0cz0idXNlclNwYWNlT25Vc2UiIGdyYWRpZW50VHJhbnNmb3JtPSJ0cmFuc2xhdGUoMTQ1MS4yMSAxMjU0LjkpIHNjYWxlKDAuMTIpIiB5Mj0iLTEwMzQ1LjMiIHgyPSItMTAxODUuMDYiIHkxPSItMTAzNDUuMyIgeDE9Ii0xMDMyMi41NiIgaWQ9ImxpbmVhci1ncmFkaWVudC0yIj48c3RvcCBzdG9wLWNvbG9yPSIjOTM5ZmFiIiBvZmZzZXQ9IjAiLz48c3RvcCBzdG9wLWNvbG9yPSIjZGNkZWUxIiBvZmZzZXQ9IjEiLz48L2xpbmVhckdyYWRpZW50PjxyYWRpYWxHcmFkaWVudCBncmFkaWVudFVuaXRzPSJ1c2VyU3BhY2VPblVzZSIgZ3JhZGllbnRUcmFuc2Zvcm09Im1hdHJpeCgtMC4xMSwgLTAuMDIsIDAuMDMsIC0wLjIzLCAxMjguNywgLTEzMzguMikiIHI9IjE4Mi41NiIgY3k9Ii02MDU2LjI2IiBjeD0iLTM0MTEuNzgiIGlkPSJyYWRpYWwtZ3JhZGllbnQiPjxzdG9wIHN0b3AtY29sb3I9IiNlZTM1MmMiIG9mZnNldD0iMCIvPjxzdG9wIHN0b3AtY29sb3I9IiNhOTFkMjIiIG9mZnNldD0iMSIvPjwvcmFkaWFsR3JhZGllbnQ+PC9kZWZzPjx0aXRsZT5zcWwtc2VydmVyPC90aXRsZT48cGF0aCBkPSJNMzQ0LjUsMTMwLjgxbC01Ni4xMiwxOC4zMi00OC44MiwyMS41NS0xMy42NiwzLjYxYy0zLjQ3LDMuMzEtNy4xMiw2LjY2LTExLjA3LDEwLjA1LTQuMzIsMy43My04LjM1LDcuMTMtMTEuNDUsOS41OWE4NS43Niw4NS43NiwwLDAsMC0xMS4xMSwxMWMtMy44Niw0Ljg0LTYuOTEsMTAtOC4yMywxMy45Mi0yLjMzLDcuMTItMS4xOSwxNC4zMywzLjMxLDIxLDUuNzcsOC40OCwxNy4yNiwxNy4xNCwzMC42NywyM2ExOTUuNjgsMTk1LjY4LDAsMCwwLDI3LDljMTQuMzgsMy42NCw0Mi4yLDcuNTksNTcuNTIsOC4xOGE2NC40OSw2NC40OSwwLDAsMCw3LjQyLDBjLjM0LS4yMSwyLjcxLTQuNzUsNS40Ny0xMC4zOSw5LjQyLTE5LjIxLDE2LjItMzcuMjQsMTkuODktNTIuNjQsMi4yMS05LjMzLDMuOTUtMjEuNzUsNS4wOS0zNi40Ny4zLTQuMTIuNDMtMTcuOS4xNy0yMi41N2ExNTguMTYsMTU4LjE2LDAsMCwwLTIuMTItMTkuODksNC43NSw0Ljc1LDAsMCwxLS4xMy0xLjc0Yy4xNy0uMTMuNjgtLjMsNy42LTIuMjlsLTEuNC0zLjMxWm0tMTIuODEsNy41MWMuNTEsMCwxLjg2LDEzLDIuMiwyMS4yNWExMC44MywxMC44MywwLDAsMSwwLDIuODhjLS4zNCwwLTcuMTctNC0xMi03LjA4LTQuMjUtMi42Ny0xMi4zLTgtMTMuNTgtOS0uNDItLjMtLjM4LS4zNCwzLjEtMS41M0MzMTcuMjIsMTQyLjgxLDMzMS4yMiwxMzguMzIsMzMxLjY5LDEzOC4zMlptLTI4LjU5LDkuNDJjLjM4LDAsMS4zNi41NSwzLjY5LDIsOC43NCw1LjQ3LDIwLjYxLDEyLjA5LDI1LjcsMTQuMjksMS41Ny42OCwxLjc0LjQzLTEuODYsMi44OWExODUuMTMsMTg1LjEzLDAsMCwxLTI5LjE0LDE1LjY1Yy0yLjA4LjkzLTMuODIsMS42NS0zLjg2LDEuNjVhMTAuNTcsMTAuNTcsMCwwLDEsLjUxLTIuMzMsMTI1LjM4LDEyNS4zOCwwLDAsMCw0LjU0LTI5LjgyYzAtNC4yNCwwLTQuMjQuNDItNC4zNy0uMDguMDUsMCwuMDUsMCwuMDVaTTI5Ny4yLDE1MGMuMjYuMjYuMDksOS43Ni0uMjUsMTIuMzVhMTA3LjcsMTA3LjcsMCwwLDEtMy45LDE4LjQ1LDI3LjQ4LDI3LjQ4LDAsMCwxLTEsM2MtLjE3LjIxLTYtNS40OC03Ljg5LTcuNjhhNTcuNTEsNTcuNTEsMCwwLDEtNy44LTExLjM3LDM2LjExLDM2LjExLDAsMCwxLTIuMzgtNS43N2MuNjgtLjQ2LDIzLTkuMTIsMjMuMi05Wm0tMjcuNzQsMTAuOWEuMTQuMTQsMCwwLDEsLjEzLjA1LDcuNjQsNy42NCwwLDAsMSwuNjQsMS41Miw1Ny41Myw1Ny41MywwLDAsMCw3LDEyLjYsNzEuMjEsNzEuMjEsMCwwLDAsOS44LDEwLjU2YzEsLjg1LDEuOTUsMS42NiwyLjA3LDEuNzhzLjM0LjIyLTYuNTcsMi44NWMtOCwzLTE2Ljc1LDYuMS0yNi43Niw5LjMzLTIuMzkuNzctNC43OCwxLjU0LTcuMTcsMi4zMy0uMzguMTMtLjI2LS4wOS44NS0xLjgyLDUtNy43NywxMi41MS0yMywxNi43NS0zMy43Ny43Mi0xLjg2LDEuNDQtMy43MywxLjU3LTQuMTVhMS41NCwxLjU0LDAsMCwxLC45My0xLjExLDQuODEsNC44MSwwLDAsMSwuNzItLjE3Wk0yNjEsMTY0LjRhOTEuNjksOTEuNjksMCwwLDEtNC4xNSw4Ljc4Yy00LjEyLDgtOC42MiwxNS45MS0xNC42NCwyNS41LTEsMS42NS0yLDMuMTgtMi4xMiwzLjM1cy0uMy4yMS0xLTEuMTFhMzguNzIsMzguNzIsMCwwLDEtMy4yNy05Ljg0LDM5LjU0LDM5LjU0LDAsMCwxLC4yMS0xMi42NGMuNTUtMi42My41MS0yLjU4LDEuNzgtMy4yMiw1LjQzLTIuNzYsMjMtMTEsMjMuMTYtMTAuODJabTczLjE3LDN2MS43OGEyMzEuNTgsMjMxLjU4LDAsMCwxLTIuNSwzMS45Yy0uMjYsMS42Ni0uNDcsMy0uNTEsMy4wNnMtMS4yMy0uMzQtMi42OC0uNzdBMTA5LjcyLDEwOS43MiwwLDAsMSwzMDksMTk1Yy00LjExLTIuMjUtMTAuMDktNS45NC05LjkyLTYuMTFzMS44Mi0xLDMuOS0yLjA4YTI0OS4zMiwyNDkuMzIsMCwwLDAsMjMuMi0xMy42MmMyLjU5LTEuNzMsNi40OS00LjUzLDcuMzQtNS4zbC42OC0uNTFaTTIyOSwxNzkuOTNjLjE3LDAsLjEzLjM0LS4xMywxLjg2LS4xNywxLjExLS4zOCwzLjE0LS40Niw0LjU0LS4zNSw2LjIuNjcsMTAuNzgsMy43MywxN2EzMy41NywzMy41NywwLDAsMSwxLjQ4LDMuMjNjLS4zLjI1LTI4LjM3LDguNDgtMzcuMiwxMC45bC01LjA5LDEuNGMtLjI5LjA4LS4zNCwwLS4yMS0uNjgsMS02LjI0LDUuNzMtMTQuMzgsMTIuMzQtMjEuMjVhNTUuMiw1NS4yLDAsMCwxLDE0LTEwLjY5YzQuMzMtMi40NiwxMS02LjE1LDExLjQ5LTYuMzIsMCwwLDAsMCwuMDksMFptNjYuMTcsMTEuODNhMTcuNywxNy43LDAsMCwxLDIuMjksMS4yMywxMjcuNDksMTI3LjQ5LDAsMCwwLDMyLjQ5LDEyLjY0bDEsLjIxLTEuMzYuNzdjLTUuNjQsMy4xNC0yNC4xNywxMC44Ni00My4xMywxNy45NC0yLjc2LDEtNS40NywyLTYsMi4yNWEyLjc5LDIuNzksMCwwLDEtMSwuMjlzLjc3LTEuNTIsMS43NC0zLjM1YTIwOC42NywyMDguNjcsMCwwLDAsMTMuMzYtMzAuNDFjLjM0LS44LjU1LTEuNTMuNi0xLjU3Wk0yODguMzgsMTk0YTExLDExLDAsMCwxLS43MiwxLjk1LDI2Ny45LDI2Ny45LDAsMCwxLTE0LjcyLDI5LjY1Yy0xLjU3LDIuOC0yLjg4LDUuMDUtMi45Miw1LjA1cy0xLjMyLS43Ny0yLjg1LTEuN2MtOS01LjUyLTE3LTEyLjMtMjIuMTgtMTguODhsLS43Ni0uOTMsMy44Ni0xLjA2YTI3OSwyNzksMCwwLDAsMzcuMjQtMTIuODVDMjg3LDE5NC41MiwyODguMzQsMTk0LDI4OC4zOCwxOTRabTQxLjkxLDE0LjYzaDBjMCwxLTIuMTIsOS43MS0zLjksMTYtMS40OSw1LjMxLTIuNzYsOS40Ni01LjA5LDE2LjgtMSwzLjIyLTEuOTEsNS45LTEuOTUsNS45YTMuMzIsMy4zMiwwLDAsMS0uNTYtLjEzLDE3Ny4zMSwxNzcuMzEsMCwwLDEtMzQuNDgtOS43MWMtMy0xLjE5LTcuMjEtMy4xLTcuNDYtMy4zMWE0Ny40Miw0Ny40MiwwLDAsMSw1LjY4LTIuNjhjMTkuMy04LjQ0LDM5LjMyLTE4LDQ2LjE5LTIyLjE0YTUuNjUsNS42NSwwLDAsMSwxLjU3LS43NlptLTk2Ljc1LDMuMzFjLjA4LjA4LTUuMyw3Ljg1LTEyLjg1LDE4LjQxLTIuNjMsMy42OS01LjY5LDgtNi44Myw5LjYzUzIxMSwyNDQuMSwyMTAsMjQ1LjYzbC0xLjc4LDIuNzYtMS45MS0xLjYyYTcwLjQzLDcwLjQzLDAsMCwxLTcuODktOC4wNSwzNC43NywzNC43NywwLDAsMS03LjA4LTEzLjdjLS40Ny0yLS40Ny0zLjA2LS4wNS0zLjE4LjY0LS4xNywxMi0yLjg1LDIyLjU3LTUuMzEsNS44OS0xLjM1LDEyLjcyLTMsMTUuMTgtMy41NnM0LjQ2LTEuMDYsNC41LTEuMDZaTTIzOSwyMTRsMS4zNiwxLjUyYTc5LjQ1LDc5LjQ1LDAsMCwwLDE5Ljg5LDE2LjI5LDExLjA5LDExLjA5LDAsMCwxLDIuMjksMS40OWMtLjMuMjEtMjYuMjEsOS40MS0zOC4yMiwxMy41Ny02Ljc0LDIuMzctMTIuMyw0LjI4LTEyLjM0LDQuMjhhNy40Miw3LjQyLDAsMCwxLS44NS0uNTVsLS43Ni0uNTUsMS4yMy0xLjc4YzQtNS43Nyw5LTEyLjA5LDE5Ljg5LTI1LjI0bDcuNTEtOVptMzMuODUsMjQuMjJjMC0uMDUsMS45LjYzLDQuMTksMS40OGExMzcsMTM3LDAsMCwwLDE1Ljc0LDQuODgsMTc1LDE3NSwwLDAsMCwyMy44LDQuMTFjLjkzLjA5LDEuNDQuMTcsMS4yNy4zcy02LjUzLDIuMjUtMTEuMTEsMy42OWMtNy4zLDIuMjktMjkuNTcsOC44Ny00Ny43MiwxNC4wOC0zLjM1LDEtNi4yNCwxLjc4LTYuNDEsMS44M2EzLjQsMy40LDAsMCwxLTEuODItLjQ3LDMxLjM4LDMxLjM4LDAsMCwxLDIuMjUtMi44NCwyNTIuMzEsMjUyLjMxLDAsMCwwLDE3LjIyLTIzLjE2YzEuNC0yLjEyLDIuNTktMy44NiwyLjU5LTMuOVptLTcuNDcuMjFzLTMsNC44OC04LjIzLDEzLjE5Yy0yLjI1LDMuNTItNC43NSw3LjUxLTUuNjQsOC45MXMtMi4xMiwzLjQ4LTIuODQsNC42NmwtMS4yMywyLjE3LS42NC0uMTdjLTEuNTItLjQzLTEyLjI2LTQuMi0xNS4xLTUuMzVhMTAyLjU1LDEwMi41NSwwLDAsMS05Ljg4LTQuNTRjLTMuMzktMS44Mi03LjYzLTQuNTQtNy4zLTQuNjIuMDksMCw1LjktMS42MSwxMi45LTMuNTIsMTguNTgtNS4wNSwyOC44OC04LDM1LjYzLTEwLjA5YTE2LjU5LDE2LjU5LDAsMCwxLDIuMzMtLjY0Wm01Mi44MSwxMi4zOGgwYy4xNy40My02LjcsMTkuNTItOS4yLDI1LjU0LS41NiwxLjM2LS43NywxLjY5LTEuMDYsMS42NS0uNzMsMC0xMC42OS0xLjQ0LTE2Ljc2LTIuMzMtMTAuNTYtMS42MS0yOC4yOS00LjcxLTMyLjc0LTUuNzNsLTEtLjIxLDYuMzItMS40NGMxMy41Ny0zLjA2LDIwLjEtNC43MSwyNi43Mi02Ljc1YTE4Ny44NywxODcuODcsMCwwLDAsMjUtOS42MiwyMS4yNSwyMS4yNSwwLDAsMSwyLjcyLTEuMTFaIiBjbGFzcz0iY2xzLTEiLz48cGF0aCBkPSJNMjg2LjY0LDBjLS45My0uMTItMTYsNS4zLTI1LjcsOS4yNS0xMy4xMSw1LjM0LTIzLjI5LDEwLjQzLTI5LjU2LDE0Ljg0LTIuMzQsMS42Ni01LjI2LDQuNTktNS43Myw1LjczYTMuOTIsMy45MiwwLDAsMC0uMjUsMS40NGw1LjY4LDUuMzlMMjQ0LjYxLDQxbDMyLjE5LDUuNzYsMzYuODIsNi4zMi4zOC0zLjE4Yy0uMTMsMC0uMjEsMC0uMzQsMGwtNC44My0uNzYtMS0xLjc0Yy01LTguODItMTAuNTItMTkuNzctMTMuNzQtMjcuMTVBMTM5LjQsMTM5LjQsMCwwLDEsMjg3LjkyLDMuMWMtLjczLTIuODktLjgxLTMuMDUtMS4yOC0zLjFaTTI4NiwyLjE3SDI4NnMuMjEsMS4yMy4zOCwyLjYzYTg5LjE1LDg5LjE1LDAsMCwwLDQuMTEsMTcuODVjMS41Nyw0LjY3LDEuNTcsNC40MS0uMjUsMy44NkMyODUuOTIsMjUuMzIsMjY2LjU0LDIyLDI1Mi41LDIwYy0yLjI1LS4yOS00LjE2LS41OS00LjE2LS42My0uMTctLjE3LDEwLjE0LTUuNTYsMTQuNjgtNy42OEMyNjguODMsOSwyODQuNzgsMi4zOCwyODYsMi4xN1ptLTQwLjg4LDE5LDEuNjUuNTVjOSwzLjA1LDMxLjYsNy4zOCw0NC4wNyw4LjQsMS40LjEyLDIuNTkuMjUsMi42My4yNWEyMC40LDIwLjQsMCwwLDEtMi42NywxLjRjLTYsMy0xMi42NCw2LjctMTcuMjIsOS41NWExOC4wNywxOC4wNywwLDAsMS0yLjc2LDEuNTJjLS4xNywwLTEuMDYtLjE3LTItLjI5bC0xLjctLjI2LTQuMjQtNC4xNmMtNy40Ny03LjI1LTEzLjMyLTEyLjg1LTE1LjU3LTE1Wm0tMS43LDEuMzEsNiw3LjQ3YzMuMjcsNC4xMSw2LjU3LDguMTQsNy4zLDlhMTMuMDgsMTMuMDgsMCwwLDEsMS4yNywxLjY2Yy0uMTcuMTItOC42NS0xLjUzLTEzLjE1LTIuNTVzLTYuNTMtMS41Ny05LjM3LTIuNDZsLTIuMzQtLjc2di0uNmMuMDUtMi44NCwzLjY1LTcuMDgsOS43Ni0xMS40MWwuNTUtLjM4Wm01MC44MSwxMC4xOGMuMTcsMCwuMzguMzguODksMS41MywxLjQ1LDMuMTgsNS45NCwxMS43NSw3LDEzLjQuMzQuNTUuOTQuNi01LS4zOC0xNC4zOC0yLjMzLTE5LTMuMS0xOS0zLjE4YTQuNDcsNC40NywwLDAsMSwxLS42NCw4My4yMyw4My4yMywwLDAsMCwxMi45NC05YzEtLjgsMS44Ni0xLjU3LDItMS42OXMuMTMtLjEzLjE3LS4wOVoiIGNsYXNzPSJjbHMtMiIvPjxwYXRoIGQ9Ik0yMjYsMjkuMjNhNC4yLDQuMiwwLDAsMCwwLDMuNjljLjU2LDEuMzUsMi4xNywzLDQsNC43MSwwLDAsMTguODgsMTguNCwyMS4xNywyMSwxMC40MywxMiwxNSwyMy45MywxNS4zOSw0MC4zLjI2LDEwLjUyLTEuNzQsMTkuNzYtNi43LDMwLjQ5LTguODIsMTkuMjYtMjcuNDQsNDAuNTEtNTYuMTYsNjQuMDlsNC4yLTEuNGMyLjcyLTIsNi40MS00LjE5LDE1LjA2LTguOTUsMjAtMTAuOTQsNDIuNDYtMjEsNzAtMzEuMzQsMzkuNy0xNC45MywxMDUtMzIuNDEsMTQyLjEzLTM4LjA5bDMuODYtLjU5LS41OS0uOTRhMTMyLjIzLDEzMi4yMywwLDAsMC04LjUzLTEyLDEwMS44MywxMDEuODMsMCwwLDAtMzAuMTEtMjUuMDdDMzgzLDY1Ljg3LDM2MS41LDU4LjYyLDMzNC4yOCw1My4yM2MtNS4xNC0xLTE2LjQyLTMtMjUuNTgtNC4zNi0xOS40My0zLTMyLTUuMDktNDUuODEtNy40Ny01LS44NS0xMi4zOS0yLjEyLTE3LjMxLTMuMThhMTEwLjMxLDExMC4zMSwwLDAsMS0xMS4yMy0zYy0zLjA2LTEuMTktNy40Ny0yLjM4LTguNC02Wm0xMC45NCwxMC42YTExLjgsMTEuOCwwLDAsMSwxLjYxLjUxYzEuNjEuNTUsMy42OSwxLjE5LDYuMTUsMS44N3EyLjc5Ljc2LDUuNiwxLjQ4YzIuNTUuNjQsNC42NywxLjIzLDQuNzEsMS4yMy4zLjMsNC41OCwxNCw2LDE5LjI2LjU1LDIsMSwzLjY5Ljk0LDMuNjlhOC41OCw4LjU4LDAsMCwxLTEuMDctMS42NmMtNS04Ljc0LTEyLjgtMTcuNi0yMS44OC0yNC43M2ExNy40NiwxNy40NiwwLDAsMS0yLjA4LTEuNjVabTIwLjg3LDUuNzdhMTcuNDksMTcuNDksMCwwLDEsMi4yOS4zOGM3LjIxLDEuNjEsMjAuMTUsNC4wNywyOC40Miw1LjQ3QTEwLjUxLDEwLjUxLDAsMCwxLDI5MSw1MmEzLjkyLDMuOTIsMCwwLDEtMS4xNS43MmMtMS40LjczLTcsNC4wOC04LjksNS4zNWE4MS45LDgxLjksMCwwLDAtMTIsOS41OGMtMS4yMywxLjIzLTIuMjksMi4yNS0yLjI5LDIuMjVzLS4yNS0uNzItLjQ2LTEuNjFhMTM3LjEyLDEzNy4xMiwwLDAsMC03LjYtMjAuNzgsMTkuNzcsMTkuNzcsMCwwLDEtLjg0LTEuOTVjMCwuMDgsMCwwLDAsMFptMzYuNzMsN2MuMjUuMDguNjgsMS41MiwxLjUzLDQuNzFhNjkuMTksNjkuMTksMCwwLDEsMiwxOS40MmMtLjA4LDEuNzgtLjE3LDMuNDQtLjI1LDMuNjVsLS4xMy40Mi0yLjItLjcyYy00LjU0LTEuNDQtMTEuOTItMy42LTE4LjI0LTUuMzgtMy42MS0xLTYuNTMtMS44Ny02LjUzLTJhMTAxLjk0LDEwMS45NCwwLDAsMSw3LjUtNy41YzQuMjktMy43OCwxNS45MS0xMi43NywxNi4yOS0xMi42NFptMi45My40MmMuMTItLjEzLDE3LjU2LDIuODksMjUuNDksNC40MSw1Ljg5LDEuMTUsMTQuNDYsMi45MywxNSwzLjE0LjI2LjA5LS42NC42LTMuNDgsMS44N2ExODQuMTUsMTg0LjE1LDAsMCwwLTI3Ljc4LDE1LjFjLTIuMTYsMS40NC00LDIuNjMtNCwyLjYzYTI0LjUyLDI0LjUyLDAsMCwxLS4wOC0yLjcyLDU5LjM5LDU5LjM5LDAsMCwwLTQuNTgtMjMuMDdBNS45LDUuOSwwLDAsMSwyOTcuNDIsNTNabTQ1LjA4LDguOTFhMzEuNDcsMzEuNDcsMCwwLDEtLjkzLDUuNkMzNDAsNzMuODUsMzM1LjkzLDgzLjIyLDMzMC44OCw5MmEyNy4xMiwyNy4xMiwwLDAsMS0xLjc4LDIuODksMTksMTksMCwwLDEtMi41NC0xLjM2LDEzNy44OCwxMzcuODgsMCwwLDAtMTYuNjMtOC4xNGMtMS43LS43Mi0zLjE4LTEuMzItMy4yMi0xLjQtLjMtLjI2LDEzLjM2LTkuMjksMjAuNTctMTMuNjIsNS43Mi0zLjQ4LDE1LjA1LTguNjUsMTUuMjItOC40OFptMy4yMy41MWMuMzgsMCw4LjEsMi4xMiwxMi4xMywzLjMxYTI0OC41MiwyNDguNTIsMCwwLDEsMjguODgsMTAuNTZsMy4xLDEuNC0yLjE2LjUxYTMxNi4xNCwzMTYuMTQsMCwwLDAtNDguOTEsMTUuMTRjLTEuMjMuNTEtMi4zMy45My0yLjQyLjkzYTExLjUxLDExLjUxLDAsMCwxLC44OS0yLjE2YzQuNTQtOS42Myw3LjQ3LTE5LjY4LDguMTktMjguMjUsMC0uODEuMTctMS40NC4zLTEuNDRaTTI2OC44Nyw4MC4wOGMuMTMtLjEyLDYsMS4yOCw5LjIxLDIuMTcsNC44MywxLjM1LDE1LjA5LDQuNzksMTUuMDksNSwwLDAtMS4xNCwxLTIuNSwyLjIxLTUuNTUsNC42Mi0xMC45LDkuNS0xNy4zLDE1LjY5LTEuOTEsMS44My0zLjUyLDMuMzEtMy42MSwzLjMxcy0uMTItLjI1LS4wOC0uNTlhOTUuOCw5NS44LDAsMCwwLS42LTI1LjU4QzI2OSw4MS4xNCwyNjguODMsODAuMTIsMjY4Ljg3LDgwLjA4Wm0xMjMuOS4xM2MuMDguMDgtMi43Miw0LjUtNC41LDctMi41NCwzLjY1LTYuMjgsOC40OC0xNC43MiwxOS4wOS00LjQ1LDUuNTktOS40NiwxMS45MS0xMS4xMSwxNHMtMy4xLDMuOTEtMy4xNCwzLjkxYTE2LjMyLDE2LjMyLDAsMCwxLTEuMTktMS43LDg3LjQyLDg3LjQyLDAsMCwwLTE3LjE4LTE5Yy0xLjI3LTEuMDYtMi42Ny0yLjIxLTMuMTMtMi41NGE0LjIzLDQuMjMsMCwwLDEtLjg1LS43M2MwLS4xMiw3LjIxLTMuMjIsMTIuNjgtNS40Miw5LjU5LTMuOTEsMjIuNjUtOC41NywzMi40NS0xMS41OCw1LjEzLTEuNjIsMTAuNi0zLjE5LDEwLjY5LTMuMVptMy4yNi44NWE5LjUxLDkuNTEsMCwwLDEsMi40MiwxLjE5LDE0My41MSwxNDMuNTEsMCwwLDEsMjguMzgsMjEuMjljMi4yNCwyLjIsNy44LDgsNy43MSw4cy0yLC4xNy00LjI0LjM0Yy0xNy44NSwxLjM2LTQwLjcxLDUuMTQtNjIuNjksMTAuNDQtMS40OC4zNC0yLjguNjMtMi44OC42M3MxLjU3LTEuNjUsMy42NS0zLjY0QzM4MS4yNywxMDYuODksMzg3LjE3LDk5LDM5NC4xMiw4NWMxLTIuMDcsMS44My0zLjg1LDEuOTEtNFptLTk0LjQ2LDkuNjdjLjYuMTMsNi4xMSwyLjcxLDEwLjI3LDQuNzksMy44MiwxLjkxLDkuNTQsNSw5Ljg0LDUuMjIsMCwwLTIsMS4xLTQuNSwyLjMzLTgsNC0xNC44LDcuNzYtMjEuOTMsMTIuMDktMiwxLjIzLTMuNzMsMi4yNS0zLjc3LDIuMjVzLS4xMy0uMTcsMS0yLjI1YTg4LjkyLDg4LjkyLDAsMCwwLDguNjEtMjMuMzdjLjE3LS42NC4zNC0xLjA2LjQ2LTEuMDZabS01LjUxLDFhODEuMyw4MS4zLDAsMCwxLTIuMjEsOC4xOCwxMDQuNDMsMTA0LjQzLDAsMCwxLTcuNSwxNy4yMmMtLjY4LDEuMTktMS43LDIuOTMtMi4yNSwzLjkxTDI4MywxMjIuNzVsLTIuMzgtMi4yOWEzMS4xMSwzMS4xMSwwLDAsMC03Ljg5LTUuODEsMTAuNzgsMTAuNzgsMCwwLDEtMi0xLjE5YzAtLjM0LDcuMjUtNi45MSwxMi44MS0xMS42Niw0LTMuNDQsMTIuMzgtMTAuMTgsMTIuNTEtMTBabTMzLjcyLDEzLjg3LDIuMDgsMS4zNWExNjAuMiwxNjAuMiwwLDAsMSwxNC42MywxMC44MmMyLjQyLDIsNy4wOCw2LjE5LDgsNy4yMWwuNTEuNTUtMy40NCwxYy0xOS40Myw1LjM4LTM0LjQ0LDEwLjE4LTUyLDE2LjYyLTEuOTUuNzItMy42LDEuMzItMy43MywxLjMycy0uNDcuMjEsMy45LTMuODJhMTg1Ljg3LDE4NS44NywwLDAsMCwyOC41LTMyLjc0bDEuNDktMi4yOVptLTguODcsMi4yYy4wOS4wOS01LjcyLDguMjctOS4yLDEyLjktNC4xNiw1LjUxLTExLjU0LDE0Ljc2LTE2LjYzLDIwLjc4LTIuMTIsMi41LTMuOTQsNC41OC00LDQuNjJzLS4xNy0uNTktLjE3LTEuNTdhMzUuNTgsMzUuNTgsMCwwLDAtMy42LTE1LjI3Yy0xLTItMS4xNS0yLjQxLS45My0yLjYzLjgtLjcyLDEzLjE1LTcuNzYsMjAuOTUtMTIsNS4yNi0yLjgsMTMuNDktNywxMy42MS02Ljg3Wk0yNjcuMywxMjFhMTkuNTYsMTkuNTYsMCwwLDEsMi4yMSwxLjFBNDcuMTIsNDcuMTIsMCwwLDEsMjc2LjgsMTI3YTEyLjIzLDEyLjIzLDAsMCwxLTIuNDYsMmMtNCwyLjg4LTEwLjEzLDcuNTEtMTMuNywxMC4zNS0zLjczLDMtMy44NiwzLjA1LTMuNDMsMi40MmE3Mi43OCw3Mi43OCwwLDAsMCw5LjI0LTE4LjY3LDcuMjksNy4yOSwwLDAsMSwuODUtMi4xNlptMTQuMywxMS4yYy4yMSwwLC40Ni4zNCwxLjYxLDJBMzAuNjcsMzAuNjcsMCwwLDEsMjg4LDE0Ni41NWwuMDguODUtNS44MSwyLjI0Yy0xMC4zOSw0LTIwLDgtMjYuNDcsMTEtMS44Mi44NS01LDIuMzctNy4wOCwzLjM5cy0zLjc3LDEuODctMy43NywxLjgzLDEuMzEtMSwyLjkyLTIuMjFjMTIuNjktOS4yLDIzLjY3LTE5LjMsMzEuOS0yOS4zOS44OS0xLjA2LDEuNy0yLDEuNzgtMi4wOFpNMjc1LDEzMy43OGMuMTcuMTctNC42Niw1LjY0LTgsOUExNDAuNjQsMTQwLjY0LDAsMCwxLDI0MC43MSwxNjRsLTIuNTUsMS42MWMtLjI5LjE3LjA5LS4yNSw0LjUtNSwyLjgtMyw0LjkyLTUuNTYsNy4zNC04LjdhMTQuMzksMTQuMzksMCwwLDEsNC4yNC00QzI2MC40NywxNDMuMzcsMjc0Ljg1LDEzMy42MSwyNzUsMTMzLjc4WiIgY2xhc3M9ImNscy0zIi8+PHBhdGggZD0iTTkxLjM1LDMwOS40MWMtLjc4LDAtMS41Ny4wNy0yLjM0LjA3LTE1LjguODUtMjYuNDYsNy44LTMyLjcsMjEuMzgtNS4zMywxMi4yOS00Ljc0LDI4LjM0LjA2LDQwLjdDNjIsMzgzLjY0LDcxLDM5MCw4Ni4wOCwzOTIuNDJjMy4xOS41Miw1LjMzLDIuMjcsMTEuNTEsOS40OWw3LjYsOC45MUgxMTlsLTkuMTctOS4yNWMtNS4wNy01LjA3LTkuMTctOS40OC05LjE3LTkuODdzMS45NC0xLjIzLDQuMjktMS45NWM3Ljc0LTIuMzQsMTQuMTYtOC4zMiwxOC42Ni0xNy40OCwzLjY0LTcuMzYsNC4xNi05LjYzLDQuNjgtMTguNzgsMS4zNy0yNy4yNS0xMy00NC4yOC0zNi45Mi00NC4wOVptMTIuMDksNzEuMjVjLTYuNzEsMy4yNS0xNi40NSwzLjktMjIuODEsMS41Ni02LjU3LTIuNDEtMTIuOTQtOS4yNC0xNS44LTE3LTMuMTktOC40NS0yLjczLTI0LjA1LjkxLTMxLjA3LDUuODUtMTEuMTgsMTMuNTktMTYuMzMsMjQuODktMTYuMzMsMTYuNzgsMCwyNi4zMiwxMC4yOCwyNy41NiwyOS41OCwxLDE2LjEyLTQuNDEsMjguMjEtMTQuNzQsMzMuMjJabTIzOC4yMy00OGMtNS43OSwwLTEwLjIyLDIuMzQtMTMuMiw3bC0yLjM0LDMuNjV2LTkuNWgtMTB2NTYuOTVoMTB2LTE4LjJjMC0xNi42NS4yMS0xOC41OSwyLjU0LTIzLjE1LDMuMi02LjI0LDguNzItOS4zNiwxNC03Ljg3bDMuNTgsMS4wNVYzMzIuN2gtNC42MnYwWm0tNTguODItLjUyYTI4LjQ5LDI4LjQ5LDAsMCwwLTYuMTEuNzJjLTEzLjQsMy41LTIxLDE2LjMyLTIwLjQ5LDI5LjUxLDAsMTEuMDUsMi4xNSwxNi41Nyw3LjQ4LDIyLjM3LDEwLjkyLDksMjAuOCw5LjY3LDM0LjEzLDQuODcsMi4yNy0xLDQuNzUtMi4wOSw0Ljc1LTIuMDl2LTlMMjk3Ljg2LDM4MWMtMTAuNzksNC42OS0xOC45MSw0LjY5LTI1LjQyLS44NC00LjE1LTQuMjItNi05LjI5LTYuODItMTUuMDhIMzA2di03LjY4YzAtMTUuNjUtOS40Mi0yNS41My0yMy4xNC0yNS4yOFptLTE2LjMyLDI1czEuNDktOS43Niw3LTEzLjZhMTUuMTUsMTUuMTUsMCwwLDEsOC43MS0yLjc4LDE0LDE0LDAsMCwxLDguNDUsMi44NWM1LjA3LDMuOSw1LjkyLDEzLjQ2LDUuOTIsMTMuNDZoLTMwLjF2LjA3Wk0yNS4xOCwzNDYuODZDMTQuMzIsMzQwLjI4LDkuNTEsMzM1LjU0LDEwLjEsMzMwYzEuNjgtMTUuNDcsMjAuOC0xMy4zMywzMS4zOC03LjQ3bC4wOC0xMC40MWE0MSw0MSwwLDAsMC0xNC4yNC0yLjY3Yy0xMi44Ny0uMTktMjEuMTksNC0yNS4wOSwxMi42MS01LjcyLDEyLjY4LS42NSwyMi4yMywxNy42NywzMi44OSwxMC4yOSw2LDE0LjgzLDExLjE4LDE0LjgzLDE2Ljg1LDAsMTEuNy0xNC4xMSwxNS43OS0yOC42Niw4LjQ1LTMtMS41LTUuNTQtMi43NC01LjY3LTIuNzQtLjUyLDMuMzItLjI1LDExLjI2LS4yNSwxMS4yNmE2Mi44MSw2Mi44MSwwLDAsMCwxMS4xOCwzLjE3YzE2LjY0LDMuMzIsMzEuNzgtNC40OSwzMy4yMS0xNy4xNiwxLjI0LTExLjktMy4wNi0xOC4xNC0xOS4zNi0yNy44OFpNNDMwLjI3LDMzMmEzMCwzMCwwLDAsMC02LjE5LjcyYy0xMy4zOCwzLjUtMjAuOTIsMTYuMzItMjAuNCwyOS41MiwwLDExLDIuMTQsMTYuNSw3LjQ3LDIyLjI5LDEwLjkyLDksMjAuOCw5LjY5LDM0LjE5LDQuODcsMi4yNy0xLDQuNzQtMi4wNyw0Ljc0LTIuMDd2LTlsLTQuNzUsMi40N2MtMTAuOCw0LjY4LTE4LjkzLDQuNjgtMjUuNDEtLjg1LTQuMTgtNC4yMi02LTkuMjMtNi44My0xNS4wOGg0MC4zdi03LjY4YzAtMTUuNTgtOS40My0yNS40Ny0yMy4xNC0yNS4yMVptLTE2LjMzLDI1czEuNTEtOS43NSw3LTEzLjY2YTE1LjA2LDE1LjA2LDAsMCwxLDguNy0yLjc5LDEzLjkxLDEzLjkxLDAsMCwxLDguNDYsMi44NmM1LjA3LDMuOSw1LjkyLDEzLjUyLDUuOTIsMTMuNTJINDE0VjM1N1pNMjMwLjQ1LDM0N2MtMTAuODYtNi41Ni0xNS42Ni0xMS4zMi0xNS4wNy0xNi45MSwxLjY4LTE1LjQ4LDIwLjc5LTEzLjMzLDMxLjM4LTcuNDhsLjA3LTEwLjRhNDAuNTQsNDAuNTQsMCwwLDAtMTQuMjQtMi42NmMtMTIuODYtLjE5LTIxLjE4LDQtMjUuMDksMTIuNjItNS43MSwxMi42Ny0uNTgsMjIuMjIsMTcuNjksMzIuODgsMTAuMjcsNiwxNC44MSwxMS4xMSwxNC44MSwxNi43OCwwLDExLjctMTQuMSwxNS44NS0yOC42Niw4LjQ0LTMtMS40OS01LjUxLTIuNzItNS42Ni0yLjcyLS41MiwzLjMyLS4yNiwxMS4yNi0uMjYsMTEuMjZBNjgsNjgsMCwwLDAsMjE2LjUzLDM5MmMxNi42NSwzLjMzLDMxLjgtNC40NywzMy4yMy0xNy4xNEMyNTEsMzYzLDI0Ni43LDM1Ni43NSwyMzAuNDUsMzQ3Wm0yNTguNjQtMTQuNDRjLTUuNzgsMC0xMC4yNiwyLjM0LTEzLjE5LDdsLTIuMzQsMy42NHYtOS40OGgtMTBWMzkwLjZoMTBWMzcyLjRjMC0xNi42NC4yLTE4LjU5LDIuNTMtMjMuMTQsMy4yMS02LjI0LDguNzItOS4zNiwxNC4wNS03Ljg2bDMuNTgsMXYtOS44OVpNMTUwLjg0LDM0Ni42NlYzMTAuMzhoLTEwLjF2ODAuMzVoNDIuNDV2LTkuNDlIMTUwLjg0VjM0Ni42NlpNMzg0LjI1LDM1OGwtOC4zMiwyMS42NC04LTIxLjc2LTguMTMtMjQuMTNIMzQ5LjQ3YzYuNywxOSwxNCwzOC4yOSwyMS4zMiw1NywzLjE4LjA3LDYuMzcsMCw5LjU2LDBsMTEuMjMtMjguMjFMNDAzLDMzMy43M2gtOS44N3MtNC4zNiwxMS40NC04LjkxLDI0LjI0Wk0xNzQuMDksMjg4LjQ5YTUuNTIsNS41MiwwLDAsMCw0LjEtMS42NCw1LjQsNS40LDAsMCwwLDEuNjktNCw1LjMyLDUuMzIsMCwwLDAtMS42OS00LDUuNjMsNS42MywwLDAsMC00LTEuNTcsNS41NCw1LjU0LDAsMCwwLTQuMSwxLjYzLDUuNDEsNS40MSwwLDAsMC0xLjYzLDQsNS4yMiw1LjIyLDAsMCwwLDEuNjMsNCw1LjQ4LDUuNDgsMCwwLDAsNCwxLjU3Wm0tMy41Ny05LjI0YTUuMTEsNS4xMSwwLDAsMSw4LjcyLDMuNTgsNSw1LDAsMCwxLTEuNDksMy42Myw0Ljg5LDQuODksMCwwLDEtMy41OCwxLjQzLDQuNzMsNC43MywwLDAsMS0zLjU4LTEuNDMsNSw1LDAsMCwxLTEuNDktMy42M0E0LjgyLDQuODIsMCwwLDEsMTcwLjUyLDI3OS4yNVptMi40LDQuMWguNjZjLjQ2LDAsLjkyLjQ1LDEuMywxLjNsLjc5LDEuNzVoMS4yM2wtMS0xLjk1Yy0uNC0uNzgtLjc5LTEuMjQtMS4yNC0xLjM2YTIuNDMsMi40MywwLDAsMCwxLjM2LS43MiwxLjgxLDEuODEsMCwwLDAsLjQ0LTEuMywxLjY2LDEuNjYsMCwwLDAtLjU4LTEuMzgsMy4yOCwzLjI4LDAsMCwwLTIuMDktLjU3aC0yLjA3djcuMjhoMS4wNXYtM1ptMC0zLjM5aC45MWEyLjMzLDIuMzMsMCwwLDEsMS4zNy4zMywxLDEsMCwwLDEsLjMyLjkxYzAsLjg0LS41MywxLjI0LTEuNDksMS4yNGgtMS4xMlYyODBaTTYuMiwyODIuN2MwLTIuNTMtLjA4LTQuNDItLjE0LTUuNTNoLjA2QTE2LjY2LDE2LjY2LDAsMCwwLDcsMjgwLjExbDkuNjksMjEuNjRoMS42MkwyOCwyNzkuOTFhMTkuNzgsMTkuNzgsMCwwLDAsLjg0LTIuNzNoLjA4Yy0uMTksMi4xNi0uMjYsNC0uMjYsNS41M3YxOS4xMUgzMnYtMjguNEgyNy43OWwtOC45MSwxOS43NWMtLjMzLjc5LS43OCwyLTEuMzcsMy41MWgtLjEzYTIyLjEzLDIyLjEzLDAsMCwwLTEuMy0zLjM3bC04LjctMjBIM3YyOC40SDYuMTV2LTE5Wm0zMywuMDVoMi44N3YxNy42OUgzOS4yMVptMS40NC02LjQ4YTIuMDUsMi4wNSwwLDAsMCwxLjQ5LS42LDIuMDgsMi4wOCwwLDAsMCwuNjUtMS40OSwxLjg2LDEuODYsMCwwLDAtLjY1LTEuNDksMi4wNSwyLjA1LDAsMCwwLTEuNS0uNiwyLDIsMCwwLDAtMS40OS42LDIuMDgsMi4wOCwwLDAsMC0uNjYsMS40OSwxLjc4LDEuNzgsMCwwLDAsLjY2LDEuNDksMi4xNSwyLjE1LDAsMCwwLDEuNDkuNlptMjEuODQsMjQuNTZ2LTMuMTJhOC4yNiw4LjI2LDAsMCwxLTUsMS43Niw2LjQ2LDYuNDYsMCwwLDEtNS0yLjA5LDguMDcsOC4wNywwLDAsMS0xLjg5LTUuNTksOC40NCw4LjQ0LDAsMCwxLDItNS45MSw2LjU2LDYuNTYsMCwwLDEsNS4wNy0yLjE0LDguMzYsOC4zNiwwLDAsMSw0LjgyLDEuNTZWMjgyYTkuODcsOS44NywwLDAsMC00LjY4LTEuMDVBMTAsMTAsMCwwLDAsNTAuMTMsMjg0YTExLjQyLDExLjQyLDAsMCwwLTIuODUsOC4wNSwxMC4zMywxMC4zMywwLDAsMCwyLjU5LDcuMjksOS4yMiw5LjIyLDAsMCwwLDcsMi45MiwxMS40NSwxMS40NSwwLDAsMCw1LjU5LTEuNDNabTguMTktOS40M2E5LjE5LDkuMTksMCwwLDEsMS40OS01LjUyLDQuMDgsNC4wOCwwLDAsMSwzLjMyLTEuNzYsMy44LDMuOCwwLDAsMSwyLjQ2LjY2VjI4MS40YTUsNSwwLDAsMC0xLjk0LS4yNyw1LDUsMCwwLDAtMy4xMywxLjEyLDYuODMsNi44MywwLDAsMC0yLjIsMy40M0g3MC42di00LjE1SDY3LjM2djIwLjI4aDMuMjVWMjkxLjRabTE4LjY2LDEwLjgxYTkuNjIsOS42MiwwLDAsMCw3LjM0LTIuOTQsMTEsMTEsMCwwLDAsMi43My03LjhjMC0zLjMxLS44NC01Ljg1LTIuNTQtNy43NGE5LDksMCwwLDAtNy4wOC0yLjc5LDEwLjE1LDEwLjE1LDAsMCwwLTcuMzQsMi42NywxMS4wNiwxMS4wNiwwLDAsMC0zLDguMTgsMTAuNTUsMTAuNTUsMCwwLDAsMi41OSw3LjQ4LDkuNDYsOS40NiwwLDAsMCw3LjI4LDIuOTNabS00LjYyLTE2LjUyYTYuMzcsNi4zNywwLDAsMSw0Ljg3LTEuOTUsNi4wNiw2LjA2LDAsMCwxLDQuODIsMS45NSwxMC44NywxMC44NywwLDAsMSwuMTIsMTEuNjQsNS45Myw1LjkzLDAsMCwxLTQuODcsMi4wOCw2LjMyLDYuMzIsMCwwLDEtNC45NC0yLjA4LDguMjUsOC4yNSwwLDAsMS0xLjgyLTUuNzMsNy45Myw3LjkzLDAsMCwxLDEuODItNS45MVptMjguOTIsMTQuNzVhNS4zMSw1LjMxLDAsMCwwLDEuODktNC4xNiw1LjA1LDUuMDUsMCwwLDAtMS40OS0zLjcsMTEuNCwxMS40LDAsMCwwLTMuNzgtMi4yMSwxMi4xMiwxMi4xMiwwLDAsMS0zLjA1LTEuNjksMi43NiwyLjc2LDAsMCwxLS44NS0yLjA5LDIuNDUsMi40NSwwLDAsMSwxLTIsNCw0LDAsMCwxLDIuNjEtLjc4LDcuNzEsNy43MSwwLDAsMSw0LjYyLDEuNDRWMjgyYTkuNTcsOS41NywwLDAsMC00LjM2LTEsNy43Miw3LjcyLDAsMCwwLTUuMTQsMS42OSw1LjU3LDUuNTcsMCwwLDAtLjcyLDcuODUsMTAuNTIsMTAuNTIsMCwwLDAsMy42NCwyLjI4LDEzLjUxLDEzLjUxLDAsMCwxLDMuMzIsMS44OCwyLjQ5LDIuNDksMCwwLDEsLjg0LDEuOTRjMCwxLjg5LTEuMywyLjg3LTMuODMsMi44N2E4LDgsMCwwLDEtNS4yNy0xLjk0djMuNTFhOS41NSw5LjU1LDAsMCwwLDUsMS4yMyw4Ljc2LDguNzYsMCwwLDAsNS41OS0xLjg4Wm0xNS40Ny0xOS41YTEwLjE4LDEwLjE4LDAsMCwwLTcuMzQsMi42NywxMS4xLDExLjEsMCwwLDAtMyw4LjE4LDEwLjYsMTAuNiwwLDAsMCwyLjU5LDcuNDgsMTAuNTgsMTAuNTgsMCwwLDAsMTQuNjMsMCwxMC44NywxMC44NywwLDAsMCwyLjczLTcuNzljMC0zLjMyLS44NS01Ljg2LTIuNTMtNy43NGE5LjE2LDkuMTYsMCwwLDAtNy4wOC0yLjhabTYuMzEsMTAuNjZhOC43Miw4LjcyLDAsMCwxLTEuNjMsNS43Myw1LjkxLDUuOTEsMCwwLDEtNC44NywyLjA4LDYuMzIsNi4zMiwwLDAsMS00Ljk0LTIuMDgsOC4yNSw4LjI1LDAsMCwxLTEuODItNS43Myw4LjM2LDguMzYsMCwwLDEsMi02LDYuNDEsNi40MSwwLDAsMSw0Ljg4LTEuOTUsNi4xNiw2LjE2LDAsMCwxLDQuOCwxLjk1LDkuOTEsOS45MSwwLDAsMSwxLjYyLDZabTguNzgsMTAuMTVoMy4yNFYyODQuMTloNC43NXYtMi43M2gtNC43NXYtMy4xM2MwLTIuODUsMS4xMS00LjI4LDMuMzktNC4yOGE0LjQ1LDQuNDUsMCwwLDEsMi4xMy41M3YtMi45M2E1Ljk0LDUuOTQsMCwwLDAtMi4zNC0uMzIsNi4wNSw2LjA1LDAsMCwwLTQuMzUsMS42Miw2LjgyLDYuODIsMCwwLDAtMi4wOSw1LjI2djMuMzNoLTMuNDN2Mi43M2gzLjQzdjE3LjQ5Wm0xMy4zMi01LjU0YzAsNCwxLjc1LDYsNS4zMyw2YTUuODksNS44OSwwLDAsMCwzLjA2LS42N3YtMi43OWEzLjQsMy40LDAsMCwxLTIuMDkuNjYsMi43NSwyLjc1LDAsMCwxLTIuMzMtLjg1LDQuNzgsNC43OCwwLDAsMS0uNzItMi45MlYyODQuMThoNS4xNHYtMi43M2gtNS4xNHYtNmMtMS4xMi4zOC0yLjIyLjcxLTMuMjYsMXY0LjkzSDE1NHYyLjczaDMuNXYxMlptMzQ4Ljg3LDM3LjM4YTUuNjEsNS42MSwwLDAsMC00LTEuNTYsNS41OSw1LjU5LDAsMCwwLTUuNzMsNS42Niw1LjM1LDUuMzUsMCwwLDAsMS42Miw0LDUuNzQsNS43NCwwLDAsMCw0LjEsMS41Niw1LjU5LDUuNTksMCwwLDAsNC4xLTEuNjIsNS40OSw1LjQ5LDAsMCwwLDEuNjgtNCw1LjY0LDUuNjQsMCwwLDAtMS43NS00Wm0tLjUzLDcuNjhhNC43OCw0Ljc4LDAsMCwxLTMuNTcsMS40MSw0Ljg0LDQuODQsMCwwLDEtMy41OC0xLjQxLDUuMDcsNS4wNywwLDAsMS0xLjQ5LTMuNjUsNC43OCw0Ljc4LDAsMCwxLDEuNDMtMy41OCw1LjI5LDUuMjksMCwwLDEsNy4yMSwwLDQuOTEsNC45MSwwLDAsMSwxLjQ5LDMuNThBNC42Nyw0LjY3LDAsMCwxLDUwNS44NiwzNDEuMjdaTTUwMi45NCwzMzhhMi43OSwyLjc5LDAsMCwwLDEuMzctLjcxLDEuODYsMS44NiwwLDAsMCwuNDQtMS4zMiwxLjY0LDEuNjQsMCwwLDAtLjU4LTEuMzYsMy4yOSwzLjI5LDAsMCwwLTIuMDgtLjU3SDUwMHY3LjI3aDEuMDVWMzM4LjJoLjY0Yy40NSwwLC45LjQ1LDEuMywxLjNsLjc4LDEuNzVINTA1bC0xLTEuOTVjLS4zNC0uODUtLjczLTEuMjQtMS4xMi0xLjM2Wm0tLjcxLS42NWgtMS4xMnYtMi40Nkg1MDJhMi4yNCwyLjI0LDAsMCwxLDEuMzcuMzJjLjI2LjE5LjMyLjQ0LjMyLjkxLDAsLjg0LS41MiwxLjIzLTEuNDksMS4yM1pNMzIwLjg3LDI4MC42MmguOTF2LTcuMjhoMi40MXYtLjkxaC01Ljczdi45MWgyLjQxdjcuMjhabTUuNTItNS40N2ExMS40OSwxMS40OSwwLDAsMC0uMDYtMS42Miw0LjI1LDQuMjUsMCwwLDAsLjI2Ljg0bDIuNzksNi4yNWguNDVsMi44LTYuMzFjLjA4LS4xOS4xNC0uNDQuMjYtLjc4LS4wNi42NS0uMDYsMS4xNy0uMDYsMS41N3Y1LjUxaDF2LTguMThoLTEuMTdsLTIuNTMsNS42NWMtLjA2LjItLjI2LjU5LS4zOSwxaC0uMDdhNi44Miw2LjgyLDAsMCwwLS4zOC0xbC0yLjUzLTUuNzJoLTEuMzF2OC4yaC45MXYtNS40N1oiIGNsYXNzPSJjbHMtNCIvPjwvc3ZnPg==;container=0;" parent="xZ_kHjIbER7TZwac74ac-34" vertex="1">
          <mxGeometry x="57.686842673966396" y="99.05769230769226" width="74.62867521367521" height="60.38461538461538" as="geometry" />
        </mxCell>
        <mxCell id="xZ_kHjIbER7TZwac74ac-33" value="&lt;span style=&quot;font-size: 20px;&quot;&gt;SQL Server container&lt;/span&gt;" style="text;html=1;whiteSpace=wrap;strokeColor=none;fillColor=none;align=center;verticalAlign=middle;rounded=0;container=0;" parent="xZ_kHjIbER7TZwac74ac-34" vertex="1">
          <mxGeometry x="14.25" y="30" width="161.5" height="30" as="geometry" />
        </mxCell>
        <mxCell id="xZ_kHjIbER7TZwac74ac-31" value="" style="group" parent="xZ_kHjIbER7TZwac74ac-35" vertex="1" connectable="0">
          <mxGeometry x="25" y="90" width="190" height="200" as="geometry" />
        </mxCell>
        <mxCell id="xZ_kHjIbER7TZwac74ac-12" value="" style="shape=image;verticalLabelPosition=bottom;verticalAlign=top;imageAspect=0;aspect=fixed;image=data:image/svg+xml,PHN2ZyB4bWxucz0iaHR0cDovL3d3dy53My5vcmcvMjAwMC9zdmciIHN0cm9rZS1taXRlcmxpbWl0PSIyIiBzdHJva2UtbGluZWpvaW49InJvdW5kIiBjbGlwLXJ1bGU9ImV2ZW5vZGQiIGZpbGwtcnVsZT0iZXZlbm9kZCIgdmlld0JveD0iNiA2LjAxMzAwMDAxMTQ0NDA5MiA0OTkuOTgyOTcxMTkxNDA2MjUgNDk5Ljk3Mzk5OTAyMzQzNzUiIHdpZHRoPSI0OTkuOTgyOTcxMTkxNDA2MjUiIGhlaWdodD0iNDk5Ljk3Mzk5OTAyMzQzNzUiPjxwYXRoIGZpbGwtcnVsZT0ibm9uemVybyIgZmlsbD0iIzAxN2NlZSIgZD0iTTE0LjA2OCA1MDQuMDA4TDI1My40ODYgMjU4LjYyYzEuNTI5LTEuNTAzIDEuNjk5LTMuODk4LjUxLTUuNjU2LTE0LjUyMy0yMC4zMjQtNDEuNDQ2LTIzLjg0OS01MS4zODMtMzcuNTA1LTI5LjQ3LTQwLjQ1Mi0zNi45NDUtNjMuMzUtNDkuNi02MS45MzFhMy43MTEgMy43MTEgMCAwMC0yLjI5MiAxLjIxNGwtODYuNTQ0IDg4LjY1QzE0LjQ5MyAyOTQuMzUgNy4zNiA0MDYuNjcgNiA1MDAuNzN2LjAxN2MwIDIuNTczIDIuMTIzIDQuNjg4IDQuNjcxIDQuNjg4IDEuMzYgMCAyLjU0OC0uNTEgMy4zOTctMS40Mjd6Ii8+PHBhdGggZmlsbC1ydWxlPSJub256ZXJvIiBmaWxsPSIjMDBhZDQ2IiBkPSJNNTAzLjk0NSA0OTcuOTUzbC0yNDUuMzYzLTIzOS40MWE0LjQ4IDQuNDggMCAwMC01LjY5LS41MzRjLTIwLjI5OSAxNC41NjUtMjMuODY2IDQxLjQyLTM3LjQ1NSA1MS4zNzQtNDAuNTExIDI5LjQ4Ny02My4zNTcgMzYuOTctNjEuOTk4IDQ5LjY0MS4xNy44ODQuNTk0IDEuNjkgMS4yNzMgMi4yOTNsODguNjY3IDg2LjQ3NmM1MC45NTggNDkuNzUyIDE2My4yMzYgNTYuOTAzIDI1Ny4yNTMgNTguMTk0IDIuNjMzIDAgNC43NTYtMi4xMTUgNC43NTYtNC42ODhhNC41OSA0LjU5IDAgMDAtMS40NDMtMy4zNDZ6Ii8+PHBhdGggZmlsbC1ydWxlPSJub256ZXJvIiBmaWxsPSIjMDRkNjU5IiBkPSJNMjQzLjM4IDQ0Ny44MTljLTI3Ljg1OC0yNy4xNzgtNDAuNzY3LTgwLjkzOSAxMi41NjktMTkxLjc5OC04Ni43MTMgMzguNzg4LTExNy4xMTggODkuNzcxLTEwMi4xNyAxMDQuMzdsODkuNiA4Ny40Mjh6Ii8+PHBhdGggZmlsbC1ydWxlPSJub256ZXJvIiBmaWxsPSIjMDBjN2Q0IiBkPSJNNDk3LjkxNSA4LjAyNkwyNTguNTgyIDI1My40MTRjLTEuNTI5IDEuNTAzLTEuNzg0IDMuODk4LS41OTUgNS42NTYgMTQuNjA4IDIwLjMyNCA0MS40NDYgMjMuODQ5IDUxLjM4MyAzNy41MDUgMjkuNDcgNDAuNDUyIDM3LjAzIDYzLjM1IDQ5LjY4NCA2MS45MzEuODUtLjEyNyAxLjY5OS0uNTUyIDIuMjkzLTEuMjE0bDg2LjQ1OS04OC42NWM0OS43NjktNTAuOTU4IDU2LjkwMy0xNjMuMjc4IDU4LjE3Ny0yNTcuMzM4di0uMDA5YzAtMi41NzMtMi4xMjMtNC42OTYtNC42NzEtNC42OTYtMS4yNzQgMC0yLjQ2My41MTgtMy4zOTcgMS40Mjd6Ii8+PHBhdGggZmlsbC1ydWxlPSJub256ZXJvIiBmaWxsPSIjMTFlMWVlIiBkPSJNNDQ3LjgwNiAyNjguNjQyYy0yNy4xNzggMjcuODU3LTgwLjkzOCA0MC43NjYtMTkxLjc3Mi0xMi42MiAzOC43MjggODYuNzkgODkuNzcxIDExNy4yMDMgMTA0LjM3OSAxMDIuMjQ2bDg3LjM5My04OS42MjZ6Ii8+PHBhdGggZmlsbC1ydWxlPSJub256ZXJvIiBmaWxsPSIjZTQzOTIxIiBkPSJNNy45NTMgMTQuMDgxbDI0NS4zNjMgMjM5LjM4NGE0LjQ4IDQuNDggMCAwMDUuNjkuNTM1YzIwLjI5OS0xNC41NjYgMjMuODY2LTQxLjQyIDM3LjU0LTUxLjM3NCA0MC40MjYtMjkuNDg4IDYzLjI3Mi0zNi45NyA2MS45MTQtNDkuNjQyLS4xNy0uODgzLS41OTUtMS42OTgtMS4yNzQtMi4zMDFsLTg4LjU4Mi04Ni40NzZDMjE3LjY0NiAxNC40NTUgMTA1LjI4NCA3LjMwNCAxMS4yNjYgNi4wMTNoLS4wODVjLTIuNTQ4IDAtNC42NzEgMi4xMTUtNC42NzEgNC42ODggMCAxLjI3NC41MSAyLjQ5NyAxLjQ0MyAzLjM4eiIvPjxwYXRoIGZpbGw9IiNmZjc1NTciIGQ9Ik0yNjguNjA0IDY0LjIxNWMyNy44NTcgMjcuMTc4IDQwLjc2NiA4MC45MzktMTIuNjU1IDE5MS44MDYgODYuNzk4LTM4Ljc4NyAxMTcuMjAzLTg5Ljc4IDEwMi4yNTYtMTA0LjM3bC04OS42MDEtODcuNDM2eiIvPjxwYXRoIGZpbGwtcnVsZT0ibm9uemVybyIgZmlsbD0iIzBjYjZmZiIgZD0iTTY0LjI2MiAyNDMuNGMyNy4xNzgtMjcuODU2IDgwLjg1My00MC43NjYgMTkxLjc3MiAxMi42MjEtMzguODEzLTg2Ljc5LTg5Ljc3MS0xMTcuMjAzLTEwNC4zNzktMTAyLjI0N2wtODcuMzkzIDg5LjYyN3oiLz48Y2lyY2xlIHRyYW5zZm9ybT0idHJhbnNsYXRlKDI0NS4zMzMgMjQ1LjI3OCkgc2NhbGUoOC40OTMpIiBmaWxsPSIjNGE0ODQ4IiByPSIxLjI2IiBjeT0iMS4yNiIgY3g9IjEuMjYiLz48L3N2Zz4=;" parent="xZ_kHjIbER7TZwac74ac-31" vertex="1">
          <mxGeometry x="65" y="50" width="60" height="60" as="geometry" />
        </mxCell>
        <mxCell id="xZ_kHjIbER7TZwac74ac-13" value="" style="shape=image;verticalLabelPosition=bottom;verticalAlign=top;imageAspect=0;aspect=fixed;image=data:image/svg+xml,PHN2ZyB4bWxuczp4bGluaz0iaHR0cDovL3d3dy53My5vcmcvMTk5OS94bGluayIgeG1sbnM9Imh0dHA6Ly93d3cudzMub3JnLzIwMDAvc3ZnIiB4bWw6c3BhY2U9InByZXNlcnZlIiBzdHlsZT0iZW5hYmxlLWJhY2tncm91bmQ6bmV3IDAgMCA5MC42MyAxMjIuODgiIHZpZXdCb3g9Ii0wLjAxMjU0NjUzOTMwNjY0MDYyNSAwIDkwLjY0MjU0NzYwNzQyMTg4IDEyMi44NzcxODk2MzYyMzA0NyIgeT0iMHB4IiB4PSIwcHgiIGlkPSJMYXllcl8xIiB2ZXJzaW9uPSIxLjEiIHdpZHRoPSI5MC42NDI1NDc2MDc0MjE4OCIgaGVpZ2h0PSIxMjIuODc3MTg5NjM2MjMwNDciPjxzdHlsZSB0eXBlPSJ0ZXh0L2NzcyI+LnN0MHtmaWxsLXJ1bGU6ZXZlbm9kZDtjbGlwLXJ1bGU6ZXZlbm9kZDtmaWxsOiM1MzgyQTE7fSAuc3Qxe2ZpbGwtcnVsZTpldmVub2RkO2NsaXAtcnVsZTpldmVub2RkO2ZpbGw6I0U3NkYwMDt9PC9zdHlsZT48Zz48cGF0aCBkPSJNMjkuMTksOTUuMDNjMCwwLTQuNywyLjczLDMuMzQsMy42NWM5Ljc0LDEuMTEsMTQuNzEsMC45NSwyNS40NC0xLjA4YzAsMCwyLjgyLDEuNzcsNi43NiwzLjMgQzQwLjY4LDExMS4yMiwxMC4yOSwxMDAuMzEsMjkuMTksOTUuMDNMMjkuMTksOTUuMDN6IiBjbGFzcz0ic3QwIi8+PHBhdGggZD0iTTI2LjI1LDgxLjU4YzAsMC01LjI3LDMuOSwyLjc4LDQuNzNjMTAuNCwxLjA3LDE4LjYyLDEuMTYsMzIuODMtMS41OGMwLDAsMS45NywxLjk5LDUuMDYsMy4wOCBDMzcuODMsOTYuMzIsNS40Myw4OC40OCwyNi4yNSw4MS41OEwyNi4yNSw4MS41OHoiIGNsYXNzPSJzdDAiLz48cGF0aCBkPSJNNTEuMDMsNTguNzZjNS45Myw2LjgyLTEuNTYsMTIuOTYtMS41NiwxMi45NnMxNS4wNS03Ljc3LDguMTQtMTcuNUM1MS4xNSw0NS4xNSw0Ni4yLDQwLjY0LDczLDI1LjEgQzczLDI1LjEsMzAuOTQsMzUuNiw1MS4wMyw1OC43Nkw1MS4wMyw1OC43NnoiIGNsYXNzPSJzdDEiLz48cGF0aCBkPSJNODIuODQsMTA0Ljk4YzAsMCwzLjQ3LDIuODYtMy44Myw1LjA4Yy0xMy44OCw0LjIxLTU3Ljc5LDUuNDgtNjkuOTksMC4xN2MtNC4zOC0xLjkxLDMuODQtNC41NSw2LjQyLTUuMTEgYzIuNy0wLjU5LDQuMjQtMC40OCw0LjI0LTAuNDhjLTQuODgtMy40My0zMS41Miw2Ljc0LTEzLjUzLDkuNjZDNTUuMiwxMjIuMjUsOTUuNTYsMTEwLjcyLDgyLjg0LDEwNC45OEw4Mi44NCwxMDQuOTh6IiBjbGFzcz0ic3QwIi8+PHBhdGggZD0iTTMxLjQ1LDY3LjY0YzAsMC0yMi4zMyw1LjMtNy45MSw3LjIzYzYuMDksMC44MiwxOC4yMywwLjYzLDI5LjU0LTAuMzJjOS4yNC0wLjc4LDE4LjUyLTIuNDQsMTguNTItMi40NCBzLTMuMjYsMS40LTUuNjIsMy4wMWMtMjIuNjgsNS45Ni02Ni40OSwzLjE5LTUzLjg4LTIuOTFDMjIuNzcsNjcuMDUsMzEuNDUsNjcuNjQsMzEuNDUsNjcuNjRMMzEuNDUsNjcuNjR6IiBjbGFzcz0ic3QwIi8+PHBhdGggZD0iTTcxLjUxLDkwLjAzYzIzLjA1LTExLjk4LDEyLjM5LTIzLjQ5LDQuOTUtMjEuOTRjLTEuODIsMC4zOC0yLjY0LDAuNzEtMi42NCwwLjcxczAuNjgtMS4wNiwxLjk3LTEuNTIgYzE0LjcyLTUuMTcsMjYuMDQsMTUuMjYtNC43NSwyMy4zNkM3MS4wNSw5MC42NCw3MS40LDkwLjMyLDcxLjUxLDkwLjAzTDcxLjUxLDkwLjAzeiIgY2xhc3M9InN0MCIvPjxwYXRoIGQ9Ik01Ny42MSwwYzAsMCwxMi43NywxMi43Ny0xMi4xMSwzMi40MWMtMTkuOTUsMTUuNzUtNC41NSwyNC43NC0wLjAxLDM1QzMzLjg1LDU2LjkxLDI1LjMsNDcuNjYsMzEuMDMsMzkuMDUgQzM5LjQ1LDI2LjQxLDYyLjc2LDIwLjI5LDU3LjYxLDBMNTcuNjEsMHoiIGNsYXNzPSJzdDEiLz48cGF0aCBkPSJNMzMuNzEsMTIyLjQ5YzIyLjEzLDEuNDIsNTYuMTEtMC43OSw1Ni45Mi0xMS4yNmMwLDAtMS41NSwzLjk3LTE4LjI5LDcuMTJjLTE4Ljg5LDMuNTUtNDIuMTgsMy4xNC01NiwwLjg2IEMxNi4zNCwxMTkuMjIsMTkuMTcsMTIxLjU2LDMzLjcxLDEyMi40OUwzMy43MSwxMjIuNDl6IiBjbGFzcz0ic3QwIi8+PC9nPjwvc3ZnPg==;" parent="xZ_kHjIbER7TZwac74ac-31" vertex="1">
          <mxGeometry x="105" y="122" width="51" height="68.93" as="geometry" />
        </mxCell>
        <mxCell id="xZ_kHjIbER7TZwac74ac-14" value="" style="shape=image;verticalLabelPosition=bottom;verticalAlign=top;imageAspect=0;aspect=fixed;image=data:image/svg+xml,PHN2ZyB4bWxuczp4bGluaz0iaHR0cDovL3d3dy53My5vcmcvMTk5OS94bGluayIgeG1sbnM9Imh0dHA6Ly93d3cudzMub3JnLzIwMDAvc3ZnIiB4bWw6c3BhY2U9InByZXNlcnZlIiBzdHlsZT0iZW5hYmxlLWJhY2tncm91bmQ6bmV3IDAgMCAxMjEuNTQgMTIyLjg4IiB2aWV3Qm94PSItMS44NzE3MDAwNDg0NDY2NTUzIC0wLjY1MzMwMTcxNTg1MDgzMDEgMTI2LjIxMDU5NDE3NzI0NjEgMTI1LjY5NjEwNTk1NzAzMTI1IiB5PSIwcHgiIHg9IjBweCIgaWQ9IkxheWVyXzEiIHZlcnNpb249IjEuMSIgd2lkdGg9IjEyNi4yMTA1OTQxNzcyNDYxIiBoZWlnaHQ9IjEyNS42OTYxMDU5NTcwMzEyNSI+PHN0eWxlIHR5cGU9InRleHQvY3NzIj4uc3Qwe2NsaXAtcGF0aDp1cmwoI1NWR0lEXzJfKTt9IC5zdDF7Y2xpcC1wYXRoOnVybCgjU1ZHSURfNl8pO308L3N0eWxlPjxnPjxnPjxkZWZzPjxwYXRoIGQ9Ik02MC4wNCwwYy01LjAxLDAuMDItOS44LDAuNDUtMTQuMDEsMS4yQzMzLjYzLDMuMzksMzEuMzgsNy45OCwzMS4zOCwxNi40NHYxMS4xN2gyOS4zMnYzLjcySDMxLjM4aC0xMSBjLTguNTIsMC0xNS45OCw1LjEyLTE4LjMxLDE0Ljg2Yy0yLjY5LDExLjE3LTIuODEsMTguMTMsMCwyOS43OWMyLjA4LDguNjgsNy4wNiwxNC44NiwxNS41OCwxNC44NmgxMC4wOFY3Ny40NiBjMC05LjY4LDguMzctMTguMjEsMTguMzEtMTguMjFoMjkuMjhjOC4xNSwwLDE0LjY2LTYuNzEsMTQuNjYtMTQuOVYxNi40NGMwLTcuOTQtNi43LTEzLjkxLTE0LjY2LTE1LjI0IEM3MC4yOCwwLjM2LDY1LjA2LTAuMDIsNjAuMDQsMEw2MC4wNCwweiBNNDQuMTksOC45OWMzLjAzLDAsNS41LDIuNTEsNS41LDUuNmMwLDMuMDgtMi40Nyw1LjU3LTUuNSw1LjU3IGMtMy4wNCwwLTUuNS0yLjQ5LTUuNS01LjU3QzM4LjY5LDExLjUsNDEuMTUsOC45OSw0NC4xOSw4Ljk5TDQ0LjE5LDguOTl6IiBpZD0iU1ZHSURfMV8iLz48L2RlZnM+PGNsaXBQYXRoIGlkPSJTVkdJRF8yXyI+PHVzZSBzdHlsZT0ib3ZlcmZsb3c6dmlzaWJsZSIgeGxpbms6aHJlZj0iI1NWR0lEXzFfIi8+PC9jbGlwUGF0aD48ZyBjbGFzcz0ic3QwIj48ZGVmcz48cmVjdCBoZWlnaHQ9IjkwLjg3IiB3aWR0aD0iOTAuNzIiIHk9Ii0wLjAyIiB4PSItMC43NSIgaWQ9IlNWR0lEXzNfIi8+PC9kZWZzPjxjbGlwUGF0aCBpZD0iU1ZHSURfNF8iPjx1c2Ugc3R5bGU9Im92ZXJmbG93OnZpc2libGUiIHhsaW5rOmhyZWY9IiNTVkdJRF8zXyIvPjwvY2xpcFBhdGg+PGcgc3R5bGU9ImNsaXAtcGF0aDp1cmwoI1NWR0lEXzRfKSI+PGltYWdlIHRyYW5zZm9ybT0ibWF0cml4KDAuNDggMCAwIC0wLjQ4IC0xLjg3MTcgOTEuOTg2NykiIHhsaW5rOmhyZWY9ImRhdGE6aW1hZ2UvanBlZztiYXNlNjQsLzlqLzRBQVFTa1pKUmdBQkFnRUFsZ0NXQUFELzdBQVJSSFZqYTNrQUFRQUVBQUFBSGdBQS8rNEFJVUZrYjJKbEFHVEFBQUFBQVFNQSBFQU1DQXdZQUFBT2NBQUFFZGdBQUJwei8yd0NFQUJBTEN3c01DeEFNREJBWER3MFBGeHNVRUJBVUd4OFhGeGNYRng4ZUZ4b2FHaG9YIEhoNGpKU2NsSXg0dkx6TXpMeTlBUUVCQVFFQkFRRUJBUUVCQVFFQUJFUThQRVJNUkZSSVNGUlFSRkJFVUdoUVdGaFFhSmhvYUhCb2EgSmpBakhoNGVIaU13S3k0bkp5Y3VLelUxTURBMU5VQkFQMEJBUUVCQVFFQkFRRUJBUVAvQ0FCRUlBTVFBeGdNQklnQUNFUUVERVFILyB4QUNqQUFFQkFRRUJBUUVBQUFBQUFBQUFBQUFCQUFJRkJnUUhBUUVCQVFFQkFBQUFBQUFBQUFBQUFBQUFCQUVDQXhBQUFRRUlBZ0lEIEFBTUFBQUFBQUFBQUFBTXdRQk0wQmhZbVJnSXpBVElSQlJVVUpEVVJBQUFEQmdVRUFBVUZBQUFBQUFBQUFBQUJBa0JDa3JMU2M2SUQgd3pTRUVSSVRveUV4WVRJVVFWR1JVaFVTQUFFREJBSUJCUUFBQUFBQUFBQUFBQUF3TVhHaEFvSkRBWVB3RVlFeVFqUC8yZ0FNQXdFQSBBaEVERVFBQUFQV2ZIOHZHcWw5SGVidStQUjNteHZwTHpWajB0NWtQVFhtUTlPZVlqMDk1ZVBUM2x3OVRlV0QxTjVZUFZYbFJ2NlBmIEpUVWN2amRualZ5Qm83NEJqSm9BWXpJQm9hRFl6SUVnU0JJZThxanM1Zkc3UEhxbHpKM3dER1pBTkFDQWFBR2JtVEJJRWdTSHU2bzcgT1h4K3p4NnBjeWVubUdqTkJqSm9BWXpJQm9BUnBKZ2tBWTkxVkhaek9QMk9SVktDZW5tU1pvTVprQTBBSUJvQVl6STBOR0FZOXpWSCBaemVQMk9SVklEZW5HWkFOR2FDQklBeG1RRFFBalNUQU1lNG1qczVuSTdISXJrQnUrTXlCSUEyYm1RRFFaa0EwQU1aa2FHakh1S283IE9ieU92eWE1QWJ2Z0dNeUFhQUd6Y3lBTVprQTBBSUVqZmIxUldjM2s5ZmsxeUEzZkFNWmtDUUJqTW1hR2dCakpvQVl6SWUycWl0NTMgSjYzS3JrQnUrQVlCQWtBWUJqTW1hREdaQU5BQ0h0Wm9yZWJ5dXR5YTVDVHZna0NRSkFOQURHWkFOR2FER1RRQXg3U3FLM25jcnE4cSB1UXE3NEpBa0NRSkFHQVl6Sm1nd0NBYUQyZFVWdWZqcjA4NnJybUtLb2lpcUNvaWlLS29LaUtPN1ZQUi8vOW9BQ0FFQ0FBRUZBRTB1IEhuaEJUSUtaQlRJS1pCVElLWkJUSUtaQlRJS1pCVFBqd0plalJMMGFKZWpSTHJhSmRiUkxyYUpkYlJMcmFKZGJSTHJhSmRiVGg2dFAgLzlvQUNBRURBQUVGQUZGZWZqbkdVSXloR1VJeWhHVUl5aEdVSXloR1VJM01qY3o1OGl2dTBWOTJpdnUwVjdHaXZZMFY3R2l2WTBWNyBHaXZZMFY3R2l2WTA1K3pULzlvQUNBRUJBQUVGQVBzL3UrUDE2OTFwbDJKbDJKbDJwbDJwbDNKbDNKbDNKbDNwbDNwbDRKbDRKbDRwIGw0cGw0cGw1SkY1SkY1SkY1cEY1cEY1cEY2SkY2Skg4M3grYlZIK2c3NnpWRSs3NnpVOCs3NnpVOCs3NnpVOCs3NjFVMCs3NjFVMCsgNzYxVTArNzYxVXM4NzYxVXM4NzYzVXM4NzYzVWs4NzYzVWs4NzYzVWs4NzY1VWs4NzY1VWM4NzY1VWM4NzY3VWM2NzY3VWM2NzY3VSBVNjc2N1VVNjc2OVVVNjc2OVVVNjc2OTluK1RIeHd4d3h3eHd4d3hzeHN4c3hveG94b3hreGt4Z3hneGd4Y3hjeFl4WXhVeFV4VS9xIGZtLy8yZ0FJQVFJQ0JqOEE0NTU0ZmdhbzFScWpWR3FOVWFvMVJxalZHcVplaGJDbVpiQ21aYkNtWmJDbVpiQ21aYkNtWmJDbllXd3AgMkZzS2RoYkNuWVd3cDJISDdZc2J6ZWJ6ZWJ6ZWJ6ZWJqY2JqN2ZMejNQL2FBQWdCQXdJR1B3RG5qamx1UjZEMEhvUFFlZzlCNkQwSCBvUFFlaGo2bDBxWUYwcVlGMHFZRjBxWUYwcVlGMHFZRjBxWUYwcWRaZEtuV1hTcDFsMHFkWnorT1RtZzBHZzBHZzBHZzBHazBtayt2IHg4OWovOW9BQ0FFQkFRWS9BRTVLc2s4dzFJSmZVbGRQbVpsMCtSL3NOc2NaVWpiSEdWSTJ4eGxTTnNjWlVqYktqS2tiVlVaVWphcWogS2tiVlVaVWphcWpLa2JWVVpVamFxaktrYlZVWlVqYXFqS2tiVlVaVWphcWpLa2JWVVpVamFxaktrYlJVWlVqYUtqS2tiUlVaVWphSyBqS2tiUlVaVWphS2pLa2Y2SFo4UEI1L0gxK1BUczcrM3FNdXltWmJSd2RFWmRsTXkyamc2SXk3S1psdEhCMFJsMlV6TGFPRG9qTHRKIG1XMGNIU0dYYUtaYlJ3ZElaZHBNeTJqZzZReTdSVExhT0ZwREx0Rk10bzRXa011MFV5MmpoYVF5N1JUTGFPRnBETHRGTXRvNFdrTXUgMFV5MmpoYVF5N1JUTGFPRnBETHRGTXRvNFdrTXUwVXkyamhhUVJhS1piUnd0SUl0Rk10bzRXa0VXaW1XMGNQU0NMUlRLYU9IcEJGbyBwbE5IRDBnaTBVeW1qaDZRUmFLWlRSdzlJSi9ONitYc0xwMDd2dDZuL1g2aDdHSHNZZXhoN0dIc1lleGg3R0g4WWZ4aC9HSDhZZnhoIC9HSC9BR0IvMkIvMkIvMkIvd0JnZjlnZjlnZjlnZjhBWUgvWVAxL0Q4SDE2K0xzL243Ui8vOWs9IiBoZWlnaHQ9IjE5MyIgd2lkdGg9IjE5NiIgc3R5bGU9Im92ZXJmbG93OnZpc2libGUiLz48L2c+PC9nPjwvZz48Zz48ZGVmcz48cGF0aCBkPSJNOTMuNjMsMzEuMzN2MTMuMDJjMCwxMC4wOS04LjU2LDE4LjU5LTE4LjMxLDE4LjU5SDQ2LjA0Yy04LjAyLDAtMTQuNjYsNi44Ni0xNC42NiwxNC45djI3LjkxIGMwLDcuOTQsNi45MSwxMi42MiwxNC42NiwxNC45YzkuMjgsMi43MywxOC4xOCwzLjIyLDI5LjI4LDBjNy4zOC0yLjE0LDE0LjY2LTYuNDQsMTQuNjYtMTQuOVY5NC41OEg2MC42OXYtMy43MmgyOS4yOGgxNC42NiBjOC41MiwwLDExLjY5LTUuOTQsMTQuNjYtMTQuODZjMy4wNi05LjE4LDIuOTMtMTguMDEsMC0yOS43OWMtMi4xMS04LjQ4LTYuMTMtMTQuODYtMTQuNjYtMTQuODZIOTMuNjNMOTMuNjMsMzEuMzN6IE03Ny4xNiwxMDIuMDJjMy4wNCwwLDUuNSwyLjQ5LDUuNSw1LjU3YzAsMy4wOS0yLjQ2LDUuNi01LjUsNS42Yy0zLjAzLDAtNS41LTIuNTEtNS41LTUuNiBDNzEuNjYsMTA0LjUxLDc0LjEzLDEwMi4wMiw3Ny4xNiwxMDIuMDJMNzcuMTYsMTAyLjAyeiIgaWQ9IlNWR0lEXzVfIi8+PC9kZWZzPjxjbGlwUGF0aCBpZD0iU1ZHSURfNl8iPjx1c2Ugc3R5bGU9Im92ZXJmbG93OnZpc2libGUiIHhsaW5rOmhyZWY9IiNTVkdJRF81XyIvPjwvY2xpcFBhdGg+PGcgY2xhc3M9InN0MSI+PGRlZnM+PHJlY3QgaGVpZ2h0PSI5Mi41MyIgd2lkdGg9IjkwLjk3IiB5PSIzMS4zMyIgeD0iMzEuMzgiIGlkPSJTVkdJRF83XyIvPjwvZGVmcz48Y2xpcFBhdGggaWQ9IlNWR0lEXzhfIj48dXNlIHN0eWxlPSJvdmVyZmxvdzp2aXNpYmxlIiB4bGluazpocmVmPSIjU1ZHSURfN18iLz48L2NsaXBQYXRoPjxnIHN0eWxlPSJjbGlwLXBhdGg6dXJsKCNTVkdJRF84XykiPjxpbWFnZSB0cmFuc2Zvcm09Im1hdHJpeCgwLjQ4IDAgMCAtMC40OCAzMC4yNTg5IDEyNS4wNDI4KSIgeGxpbms6aHJlZj0iZGF0YTppbWFnZS9qcGVnO2Jhc2U2NCwvOWovNEFBUVNrWkpSZ0FCQWdFQWxnQ1dBQUQvN0FBUlJIVmphM2tBQVFBRUFBQUFIZ0FBLys0QUlVRmtiMkpsQUdUQUFBQUFBUU1BIEVBTUNBd1lBQUFObkFBQUVNUUFBQmtULzJ3Q0VBQkFMQ3dzTUN4QU1EQkFYRHcwUEZ4c1VFQkFVR3g4WEZ4Y1hGeDhlRnhvYUdob1ggSGg0akpTY2xJeDR2THpNekx5OUFRRUJBUUVCQVFFQkFRRUJBUUVBQkVROFBFUk1SRlJJU0ZSUVJGQkVVR2hRV0ZoUWFKaG9hSEJvYSBKakFqSGg0ZUhpTXdLeTRuSnljdUt6VTFNREExTlVCQVAwQkFRRUJBUUVCQVFFQkFRUC9DQUJFSUFNWUF4Z01CSWdBQ0VRRURFUUgvIHhBQ29BQUVCQVFFQkFRQUFBQUFBQUFBQUFBQUFBUU1FQWdZQkFRRUJBUUVCQUFBQUFBQUFBQUFBQUFBQkF3SUZCQkFBQVFFSUFnSUQgQVFBQUFBQUFBQUFBQUFNd1FBSVNNd1FVUkRJVElTTUJFU0pGRVFBQkFRZ0NBZ0lEQVFBQUFBQUFBQUFCQUVEd29jRXlVcUl6Y2RFUiBjbEVTTVFJaUV4SUFBUUVDREFRRUJ3QUFBQUFBQUFBQUFBRXdBcEdoTWtKeWtxSURNME9Eb3hFeGhJVmhjUkkwSVVHQlVtTFNFLy9hIEFBd0RBUUFDRVFNUkFBQUErMnk5WWVOOU9zellkNk1ocXlHckpHakl1cklhc2thc1J0TWhxeUdyS0wzdkQwY0hQMFlmSDNCaDJCRmcgRW9FV1FBbExGa0FBZFk5UEJodmg4L1NWaDNGZ0VKUkJLQkZFRUFzV0FSMWoxTUdHK1B6ZFFZOUJMRkVFQVJZb1FsRVdRQWxMMUs5UCA1MkcrSHo5QmgzRmdFSlN4WUJDVVFTZ1JSQkhXUFR3WWI0L1AxRm1QWUNWRUFFc1dBUWxFV0tFSlIxRDBzR08yT0hRWTlSVVFLRVJZIEJDVXNBRVJSQkwxRDA4TGh2ajgvVVdZOUFKVVFLQWxSQUJMRmdFSlIwcTlMRmp0amhReDdpb2dBSXNnRlNvaXdDRXBZRHFIbzRzZHMgY0tHUFFLbEVFQUpVUUtFUlJBQkwwajBjR08yV1BVR1BRUUFDeFpBQUVXUUNwVVJZZEk5SEZscmxoMEdQVVdBQVFDcFJCQUNWRUNoSCBRcjBjZldaQVoyQUNVQUFCQ0FBQWxRTng5bVgvMmdBSUFRSUFBUVVBdVZsZmhidldPOVk3MWp2V085WTcxanZXTzlZeUZqSVdNaFk3IEl5NnJ0THF1MHVxN1M1cnRMbXMwdWF6UzVyTkxtczB1YXpTNHJOTGlzMFdrN1BXZXM5WjZ6MW5yUFdlczlaNnoxbjVQLzlvQUNBRUQgQUFFRkFJSVlaWklTU0VraEpJU1NFa2hKSVNTRWtoSklDU0FsK0JQaTBUNHRJT0xTRGkwZzR0SU9MU0RpMGc0dElPTFNEaTBnNHRJZiB2Njhuazhuazhuazhuay9SK2o5SGsvL2FBQWdCQVFBQkJRQzVXVWdqeVZ6SlhNbGN5VnpLWE1wY3lsektYTXBjeWx6S1hNcGN5bHpLIFhNcGN5cmd5cmd5cmd5N2d5N2d5N2d5N2d5N2c3Vk1POHF1LzgrOHF1K2hkMUhmUXU2anZvWGRSMzBMdW83NkYzVWQ5QzdxTytoZFYgSGZSdXFqdm8zVlIzMGJxbzc2TjFVZDlHNnFPK2pkVkhmU3VxanZwWE5SMzBybW83NlZ6VWQ5SzVxTytuYzgzZlR1ZWJ2cDNQTjMwMSA0WVBtT1JJa1NKRWlSSWtTSkVpUklrU0pFaVJJa1NKRWlSSWtTSkVpUklrUkpFU1JFa1JKRVNSRWtSSllNYi8vMmdBSUFRSUNCajhBIGZSSDMwUkh1U1BLWWw1V1V4THlzcGlYbFpURXZLeW1MZVZsTVc4cktZdDVXVXhieXNwaTNsZFRGdks2bUxlVjFKVDNzUFh6bmZkNSsgSmVVbW5iaThwTk8zRjVTYWR2SDZUVHQ0L1NhZHZINlRUdDQvU2FkQVAwbW5RRDlKcDBBL1NhZEFQMG1uUWozSCtYSGpPOWZHTDRHVCB1R1R1R1R1R1R1R1J1R1J1bVJ1bVJ1bVJ1bVJ1bVJ1bVg3VDh1WDZ4bi8vYUFBZ0JBd0lHUHdCT0tKQVNVZ0pLUUVsSUNTN0FTWFlDIFM3QVNYWUNTN0FTWFlDUzdBU1hZRGttTncrZ25rMDF4R21zSTAxaEdtc0kwMWhHbXNJMDFoR21zSTAxUkdtcUkwMVJKVVJPaUowUk8gaUowUk9zazZ5VHJKT3NrNnlUckpPc256eFBBLy85b0FDQUVCQVFZL0FBUDBQZ2VQUDRIeXFvRHBWUUNxZ09sVkFkS3FBNlZVQjBxbyBEcFZRSFNxZ09sVkFkS3FBNlZVQjBxb0RwVlFIU3JnT2xYQWRLdUE2VmNCMHE0RHBWd0hTcmdPbFhBZEt1QTZYK3ZuKy9ud0x2Q0hyIE10RDNJZXN5MFBjaDZ6TFE5eUhyTXREM0llc3kwUGNoNnpMUTl5SHJNdEQzSWVzeTBQY2h4TXREM0ljVExROXlIRXkwUGNoeE10RDMgSWNUTFE5eUhFeTBQY2h4TXREM0ljVExROXlIRXkwUGNoeE10RDNJY1RMUTl5SEUyaDdrT0p0RDNJY1RhSHVRNG0wUGNoOXYyK3A4ZiBqeDVXekVyWmlWc3hLMllsYk1TdG1KV3pFclppVnN4SzJZbGJNU3RtSld6RXJaaVZzeEsyWWxiTVN0bUpXM0VyYmlWdHhLMjRsYmNTIHZIMi9tN3dmbjRYLzJRPT0iIGhlaWdodD0iMTk3IiB3aWR0aD0iMTk2IiBzdHlsZT0ib3ZlcmZsb3c6dmlzaWJsZSIvPjwvZz48L2c+PC9nPjwvZz48L3N2Zz4=;" parent="xZ_kHjIbER7TZwac74ac-31" vertex="1">
          <mxGeometry x="18.5" y="122" width="73" height="73" as="geometry" />
        </mxCell>
        <mxCell id="xZ_kHjIbER7TZwac74ac-28" value="" style="rounded=0;whiteSpace=wrap;html=1;fillColor=none;" parent="xZ_kHjIbER7TZwac74ac-31" vertex="1">
          <mxGeometry width="190" height="200" as="geometry" />
        </mxCell>
        <mxCell id="xZ_kHjIbER7TZwac74ac-32" value="&lt;font style=&quot;font-size: 20px;&quot;&gt;Airflow compose&lt;/font&gt;" style="text;html=1;whiteSpace=wrap;strokeColor=none;fillColor=none;align=center;verticalAlign=middle;rounded=0;" parent="xZ_kHjIbER7TZwac74ac-31" vertex="1">
          <mxGeometry x="18.5" y="10" width="161.5" height="30" as="geometry" />
        </mxCell>
        <mxCell id="xZ_kHjIbER7TZwac74ac-38" style="edgeStyle=none;rounded=0;orthogonalLoop=1;jettySize=auto;html=1;exitX=1;exitY=0.5;exitDx=0;exitDy=0;entryX=0;entryY=0.5;entryDx=0;entryDy=0;" parent="xZ_kHjIbER7TZwac74ac-35" source="xZ_kHjIbER7TZwac74ac-28" target="xZ_kHjIbER7TZwac74ac-29" edge="1">
          <mxGeometry relative="1" as="geometry" />
        </mxCell>
        <mxCell id="xZ_kHjIbER7TZwac74ac-36" style="edgeStyle=none;rounded=0;orthogonalLoop=1;jettySize=auto;html=1;exitX=0.75;exitY=1;exitDx=0;exitDy=0;" parent="1" source="xZ_kHjIbER7TZwac74ac-28" target="xZ_kHjIbER7TZwac74ac-1" edge="1">
          <mxGeometry relative="1" as="geometry" />
        </mxCell>
        <mxCell id="xZ_kHjIbER7TZwac74ac-37" style="edgeStyle=none;rounded=0;orthogonalLoop=1;jettySize=auto;html=1;exitX=0.5;exitY=1;exitDx=0;exitDy=0;" parent="1" source="xZ_kHjIbER7TZwac74ac-28" target="xZ_kHjIbER7TZwac74ac-5" edge="1">
          <mxGeometry relative="1" as="geometry" />
        </mxCell>
        <mxCell id="YlgOozXUA5LbVkYM0Jk0-1" value="Physical Architecture" style="text;strokeColor=none;fillColor=none;html=1;fontSize=50;fontStyle=1;verticalAlign=middle;align=center;" vertex="1" parent="1">
          <mxGeometry x="40.22" y="60" width="669.55" height="40" as="geometry" />
        </mxCell>
      </root>
    </mxGraphModel>
  </diagram>
</mxfile>
